%TF.GenerationSoftware,KiCad,Pcbnew,7.0.5*%
%TF.CreationDate,2023-06-26T08:48:10-07:00*%
%TF.ProjectId,42Vdownto5V,34325664-6f77-46e7-946f-35562e6b6963,rev?*%
%TF.SameCoordinates,Original*%
%TF.FileFunction,Legend,Bot*%
%TF.FilePolarity,Positive*%
%FSLAX46Y46*%
G04 Gerber Fmt 4.6, Leading zero omitted, Abs format (unit mm)*
G04 Created by KiCad (PCBNEW 7.0.5) date 2023-06-26 08:48:10*
%MOMM*%
%LPD*%
G01*
G04 APERTURE LIST*
%ADD10C,0.150000*%
%ADD11C,0.200000*%
%ADD12C,0.010000*%
G04 APERTURE END LIST*
D10*
X119091792Y-98869819D02*
X119425125Y-98393628D01*
X119663220Y-98869819D02*
X119663220Y-97869819D01*
X119663220Y-97869819D02*
X119282268Y-97869819D01*
X119282268Y-97869819D02*
X119187030Y-97917438D01*
X119187030Y-97917438D02*
X119139411Y-97965057D01*
X119139411Y-97965057D02*
X119091792Y-98060295D01*
X119091792Y-98060295D02*
X119091792Y-98203152D01*
X119091792Y-98203152D02*
X119139411Y-98298390D01*
X119139411Y-98298390D02*
X119187030Y-98346009D01*
X119187030Y-98346009D02*
X119282268Y-98393628D01*
X119282268Y-98393628D02*
X119663220Y-98393628D01*
X118282268Y-98822200D02*
X118377506Y-98869819D01*
X118377506Y-98869819D02*
X118567982Y-98869819D01*
X118567982Y-98869819D02*
X118663220Y-98822200D01*
X118663220Y-98822200D02*
X118710839Y-98726961D01*
X118710839Y-98726961D02*
X118710839Y-98346009D01*
X118710839Y-98346009D02*
X118663220Y-98250771D01*
X118663220Y-98250771D02*
X118567982Y-98203152D01*
X118567982Y-98203152D02*
X118377506Y-98203152D01*
X118377506Y-98203152D02*
X118282268Y-98250771D01*
X118282268Y-98250771D02*
X118234649Y-98346009D01*
X118234649Y-98346009D02*
X118234649Y-98441247D01*
X118234649Y-98441247D02*
X118710839Y-98536485D01*
X117901315Y-98203152D02*
X117663220Y-98869819D01*
X117663220Y-98869819D02*
X117425125Y-98203152D01*
X116329886Y-98584104D02*
X115853696Y-98584104D01*
X116425124Y-98869819D02*
X116091791Y-97869819D01*
X116091791Y-97869819D02*
X115758458Y-98869819D01*
D11*
X121821428Y-101806028D02*
X122535714Y-101806028D01*
X122535714Y-101806028D02*
X122535714Y-100306028D01*
X121321428Y-101806028D02*
X121321428Y-100806028D01*
X121321428Y-100306028D02*
X121392856Y-100377457D01*
X121392856Y-100377457D02*
X121321428Y-100448885D01*
X121321428Y-100448885D02*
X121249999Y-100377457D01*
X121249999Y-100377457D02*
X121321428Y-100306028D01*
X121321428Y-100306028D02*
X121321428Y-100448885D01*
X120607142Y-100806028D02*
X120607142Y-102306028D01*
X120607142Y-100877457D02*
X120464285Y-100806028D01*
X120464285Y-100806028D02*
X120178570Y-100806028D01*
X120178570Y-100806028D02*
X120035713Y-100877457D01*
X120035713Y-100877457D02*
X119964285Y-100948885D01*
X119964285Y-100948885D02*
X119892856Y-101091742D01*
X119892856Y-101091742D02*
X119892856Y-101520314D01*
X119892856Y-101520314D02*
X119964285Y-101663171D01*
X119964285Y-101663171D02*
X120035713Y-101734600D01*
X120035713Y-101734600D02*
X120178570Y-101806028D01*
X120178570Y-101806028D02*
X120464285Y-101806028D01*
X120464285Y-101806028D02*
X120607142Y-101734600D01*
X119035713Y-101806028D02*
X119178570Y-101734600D01*
X119178570Y-101734600D02*
X119249999Y-101663171D01*
X119249999Y-101663171D02*
X119321427Y-101520314D01*
X119321427Y-101520314D02*
X119321427Y-101091742D01*
X119321427Y-101091742D02*
X119249999Y-100948885D01*
X119249999Y-100948885D02*
X119178570Y-100877457D01*
X119178570Y-100877457D02*
X119035713Y-100806028D01*
X119035713Y-100806028D02*
X118821427Y-100806028D01*
X118821427Y-100806028D02*
X118678570Y-100877457D01*
X118678570Y-100877457D02*
X118607142Y-100948885D01*
X118607142Y-100948885D02*
X118535713Y-101091742D01*
X118535713Y-101091742D02*
X118535713Y-101520314D01*
X118535713Y-101520314D02*
X118607142Y-101663171D01*
X118607142Y-101663171D02*
X118678570Y-101734600D01*
X118678570Y-101734600D02*
X118821427Y-101806028D01*
X118821427Y-101806028D02*
X119035713Y-101806028D01*
X116749999Y-101806028D02*
X116749999Y-100306028D01*
X116749999Y-100306028D02*
X116392856Y-100306028D01*
X116392856Y-100306028D02*
X116178570Y-100377457D01*
X116178570Y-100377457D02*
X116035713Y-100520314D01*
X116035713Y-100520314D02*
X115964284Y-100663171D01*
X115964284Y-100663171D02*
X115892856Y-100948885D01*
X115892856Y-100948885D02*
X115892856Y-101163171D01*
X115892856Y-101163171D02*
X115964284Y-101448885D01*
X115964284Y-101448885D02*
X116035713Y-101591742D01*
X116035713Y-101591742D02*
X116178570Y-101734600D01*
X116178570Y-101734600D02*
X116392856Y-101806028D01*
X116392856Y-101806028D02*
X116749999Y-101806028D01*
X114392856Y-101663171D02*
X114464284Y-101734600D01*
X114464284Y-101734600D02*
X114678570Y-101806028D01*
X114678570Y-101806028D02*
X114821427Y-101806028D01*
X114821427Y-101806028D02*
X115035713Y-101734600D01*
X115035713Y-101734600D02*
X115178570Y-101591742D01*
X115178570Y-101591742D02*
X115249999Y-101448885D01*
X115249999Y-101448885D02*
X115321427Y-101163171D01*
X115321427Y-101163171D02*
X115321427Y-100948885D01*
X115321427Y-100948885D02*
X115249999Y-100663171D01*
X115249999Y-100663171D02*
X115178570Y-100520314D01*
X115178570Y-100520314D02*
X115035713Y-100377457D01*
X115035713Y-100377457D02*
X114821427Y-100306028D01*
X114821427Y-100306028D02*
X114678570Y-100306028D01*
X114678570Y-100306028D02*
X114464284Y-100377457D01*
X114464284Y-100377457D02*
X114392856Y-100448885D01*
X113749999Y-101806028D02*
X113749999Y-100306028D01*
X113749999Y-100306028D02*
X113392856Y-100306028D01*
X113392856Y-100306028D02*
X113178570Y-100377457D01*
X113178570Y-100377457D02*
X113035713Y-100520314D01*
X113035713Y-100520314D02*
X112964284Y-100663171D01*
X112964284Y-100663171D02*
X112892856Y-100948885D01*
X112892856Y-100948885D02*
X112892856Y-101163171D01*
X112892856Y-101163171D02*
X112964284Y-101448885D01*
X112964284Y-101448885D02*
X113035713Y-101591742D01*
X113035713Y-101591742D02*
X113178570Y-101734600D01*
X113178570Y-101734600D02*
X113392856Y-101806028D01*
X113392856Y-101806028D02*
X113749999Y-101806028D01*
X111392856Y-101663171D02*
X111464284Y-101734600D01*
X111464284Y-101734600D02*
X111678570Y-101806028D01*
X111678570Y-101806028D02*
X111821427Y-101806028D01*
X111821427Y-101806028D02*
X112035713Y-101734600D01*
X112035713Y-101734600D02*
X112178570Y-101591742D01*
X112178570Y-101591742D02*
X112249999Y-101448885D01*
X112249999Y-101448885D02*
X112321427Y-101163171D01*
X112321427Y-101163171D02*
X112321427Y-100948885D01*
X112321427Y-100948885D02*
X112249999Y-100663171D01*
X112249999Y-100663171D02*
X112178570Y-100520314D01*
X112178570Y-100520314D02*
X112035713Y-100377457D01*
X112035713Y-100377457D02*
X111821427Y-100306028D01*
X111821427Y-100306028D02*
X111678570Y-100306028D01*
X111678570Y-100306028D02*
X111464284Y-100377457D01*
X111464284Y-100377457D02*
X111392856Y-100448885D01*
%TO.C,G\u002A\u002A\u002A*%
D12*
X113156187Y-89743860D02*
X113165707Y-89869461D01*
X113169619Y-89989351D01*
X113167479Y-90095107D01*
X113158841Y-90178305D01*
X113143546Y-90252203D01*
X113095772Y-90415530D01*
X113027810Y-90591769D01*
X112942220Y-90775642D01*
X112841559Y-90961871D01*
X112728386Y-91145178D01*
X112605258Y-91320286D01*
X112582165Y-91349650D01*
X112519810Y-91422161D01*
X112441093Y-91507610D01*
X112351218Y-91600839D01*
X112255388Y-91696687D01*
X112158807Y-91789994D01*
X112066679Y-91875602D01*
X111984209Y-91948350D01*
X111916599Y-92003079D01*
X111881585Y-92031405D01*
X111846591Y-92067901D01*
X111836828Y-92093065D01*
X111838638Y-92100234D01*
X111867539Y-92152435D01*
X111922167Y-92208512D01*
X111998026Y-92265431D01*
X112090617Y-92320158D01*
X112195444Y-92369660D01*
X112308009Y-92410903D01*
X112387802Y-92436678D01*
X112470110Y-92467136D01*
X112532340Y-92498137D01*
X112580551Y-92534496D01*
X112620797Y-92581030D01*
X112659138Y-92642556D01*
X112701628Y-92723888D01*
X112711158Y-92743201D01*
X112768806Y-92878364D01*
X112813466Y-93021505D01*
X112846367Y-93178307D01*
X112868742Y-93354453D01*
X112881821Y-93555625D01*
X112884542Y-93685249D01*
X112873206Y-93940106D01*
X112839155Y-94175712D01*
X112782591Y-94390886D01*
X112703721Y-94584449D01*
X112684722Y-94621784D01*
X112635163Y-94706284D01*
X112579564Y-94779759D01*
X112510691Y-94851030D01*
X112421310Y-94928922D01*
X112418972Y-94930857D01*
X112387605Y-94959229D01*
X112362362Y-94989269D01*
X112341973Y-95025260D01*
X112325168Y-95071479D01*
X112310678Y-95132209D01*
X112297231Y-95211727D01*
X112283558Y-95314315D01*
X112268389Y-95444253D01*
X112267786Y-95449653D01*
X112259867Y-95526841D01*
X112250747Y-95625306D01*
X112240787Y-95740239D01*
X112230348Y-95866830D01*
X112219788Y-96000269D01*
X112209469Y-96135747D01*
X112199749Y-96268453D01*
X112190990Y-96393578D01*
X112183550Y-96506313D01*
X112177790Y-96601847D01*
X112174070Y-96675371D01*
X112172750Y-96722075D01*
X112172750Y-96774678D01*
X112335469Y-96793349D01*
X112451192Y-96807576D01*
X112666585Y-96840355D01*
X112852438Y-96878291D01*
X113010034Y-96921917D01*
X113140656Y-96971768D01*
X113245589Y-97028378D01*
X113326118Y-97092281D01*
X113383524Y-97164011D01*
X113419094Y-97244102D01*
X113428964Y-97287055D01*
X113438902Y-97358981D01*
X113442750Y-97429658D01*
X113442746Y-97432122D01*
X113434560Y-97521925D01*
X113408667Y-97588519D01*
X113362019Y-97636782D01*
X113291571Y-97671588D01*
X113224302Y-97687239D01*
X113129432Y-97695750D01*
X113017267Y-97696391D01*
X112894597Y-97689719D01*
X112768214Y-97676294D01*
X112644907Y-97656675D01*
X112531468Y-97631420D01*
X112434688Y-97601087D01*
X112418224Y-97594054D01*
X112373684Y-97573540D01*
X112308421Y-97542636D01*
X112226976Y-97503513D01*
X112133888Y-97458342D01*
X112033695Y-97409295D01*
X111963435Y-97375168D01*
X111866361Y-97329396D01*
X111778780Y-97289672D01*
X111705404Y-97258065D01*
X111650941Y-97236646D01*
X111620101Y-97227485D01*
X111603240Y-97226087D01*
X111574369Y-97228395D01*
X111538761Y-97238022D01*
X111491111Y-97256900D01*
X111426115Y-97286963D01*
X111338469Y-97330145D01*
X111322664Y-97338021D01*
X111122085Y-97432901D01*
X110929245Y-97514900D01*
X110749849Y-97581724D01*
X110589600Y-97631082D01*
X110556252Y-97639794D01*
X110493840Y-97654082D01*
X110434564Y-97663707D01*
X110369707Y-97669602D01*
X110290550Y-97672696D01*
X110188375Y-97673921D01*
X110128064Y-97674071D01*
X110046306Y-97673240D01*
X109987266Y-97670578D01*
X109945246Y-97665560D01*
X109914548Y-97657660D01*
X109889472Y-97646353D01*
X109862036Y-97627531D01*
X109815209Y-97568159D01*
X109786178Y-97485278D01*
X109776063Y-97381500D01*
X109778195Y-97313227D01*
X109791841Y-97226897D01*
X109820405Y-97156590D01*
X109866549Y-97093843D01*
X109901650Y-97060575D01*
X109987314Y-97002646D01*
X110098715Y-96948131D01*
X110232017Y-96898231D01*
X110383380Y-96854144D01*
X110548968Y-96817069D01*
X110724940Y-96788205D01*
X110907459Y-96768749D01*
X111047106Y-96757888D01*
X111037952Y-96652975D01*
X111036623Y-96636656D01*
X111032584Y-96581424D01*
X111027099Y-96501589D01*
X111020484Y-96401947D01*
X111013055Y-96287291D01*
X111005129Y-96162419D01*
X110997021Y-96032125D01*
X110996646Y-96026048D01*
X110982885Y-95815476D01*
X110968883Y-95632143D01*
X110953763Y-95471665D01*
X110936646Y-95329654D01*
X110916654Y-95201727D01*
X110892910Y-95083497D01*
X110864535Y-94970579D01*
X110830653Y-94858587D01*
X110790383Y-94743136D01*
X110742850Y-94619839D01*
X110687175Y-94484312D01*
X110682254Y-94472559D01*
X110659720Y-94416760D01*
X110644083Y-94370683D01*
X110633827Y-94326036D01*
X110627437Y-94274525D01*
X110623397Y-94207856D01*
X110620193Y-94117739D01*
X110619582Y-93916373D01*
X110630006Y-93684164D01*
X110651261Y-93436260D01*
X110682875Y-93179707D01*
X110688432Y-93139617D01*
X110700403Y-93039764D01*
X110705219Y-92964665D01*
X110702350Y-92909583D01*
X110691268Y-92869781D01*
X110671444Y-92840523D01*
X110642346Y-92817071D01*
X110627453Y-92809694D01*
X110584128Y-92792383D01*
X110520383Y-92769168D01*
X110442075Y-92742161D01*
X110355063Y-92713474D01*
X110311170Y-92698967D01*
X110211459Y-92663756D01*
X110114462Y-92626787D01*
X110029420Y-92591655D01*
X109965576Y-92561956D01*
X109937173Y-92546806D01*
X109832776Y-92482484D01*
X109732903Y-92408661D01*
X109646033Y-92332006D01*
X109580646Y-92259189D01*
X109567306Y-92240399D01*
X109526452Y-92173808D01*
X109478462Y-92085437D01*
X109426237Y-91981004D01*
X109372678Y-91866227D01*
X109320686Y-91746824D01*
X109289178Y-91673542D01*
X109240960Y-91572235D01*
X109194397Y-91492781D01*
X109144968Y-91429779D01*
X109088149Y-91377831D01*
X109019417Y-91331538D01*
X108934250Y-91285499D01*
X108895656Y-91265608D01*
X108813092Y-91217506D01*
X108752333Y-91170928D01*
X108707106Y-91120523D01*
X108671142Y-91060938D01*
X108655638Y-91028080D01*
X108625221Y-90947868D01*
X108603215Y-90867322D01*
X108591908Y-90795830D01*
X108593590Y-90742782D01*
X108606549Y-90713804D01*
X108640574Y-90666159D01*
X108688395Y-90611482D01*
X108743476Y-90556249D01*
X108799283Y-90506939D01*
X108849283Y-90470027D01*
X108886940Y-90451993D01*
X108906889Y-90446888D01*
X108921837Y-90439157D01*
X108928246Y-90426299D01*
X108924712Y-90405346D01*
X108909832Y-90373330D01*
X108882201Y-90327285D01*
X108840418Y-90264242D01*
X108783077Y-90181234D01*
X108708776Y-90075293D01*
X108656563Y-89995829D01*
X108598028Y-89888755D01*
X108558656Y-89791363D01*
X108540948Y-89709109D01*
X108538028Y-89662753D01*
X108542553Y-89633148D01*
X108560249Y-89613115D01*
X108596490Y-89591247D01*
X108638721Y-89570580D01*
X108675253Y-89564488D01*
X108718807Y-89572713D01*
X108741234Y-89581256D01*
X108793830Y-89612806D01*
X108844577Y-89655781D01*
X108867304Y-89681516D01*
X108915010Y-89748367D01*
X108965498Y-89832338D01*
X109014136Y-89924918D01*
X109056294Y-90017598D01*
X109087340Y-90101869D01*
X109116581Y-90196175D01*
X109127688Y-90133619D01*
X109131955Y-90095197D01*
X109135745Y-90032524D01*
X109138474Y-89955394D01*
X109139735Y-89872625D01*
X109140863Y-89801856D01*
X109146484Y-89713790D01*
X109158408Y-89648003D01*
X109178448Y-89598829D01*
X109208418Y-89560603D01*
X109250129Y-89527660D01*
X109258392Y-89522370D01*
X109327248Y-89495258D01*
X109393741Y-89497822D01*
X109453272Y-89530010D01*
X109473237Y-89548603D01*
X109486860Y-89568882D01*
X109493941Y-89596996D01*
X109496391Y-89640914D01*
X109496121Y-89708604D01*
X109495276Y-89736278D01*
X109487385Y-89831701D01*
X109472599Y-89941167D01*
X109452465Y-90052501D01*
X109432785Y-90150139D01*
X109419484Y-90225613D01*
X109413508Y-90280975D01*
X109415088Y-90321753D01*
X109424454Y-90353472D01*
X109441838Y-90381659D01*
X109467470Y-90411841D01*
X109518279Y-90485496D01*
X109555841Y-90583883D01*
X109569257Y-90688741D01*
X109568063Y-90711780D01*
X109561386Y-90768975D01*
X109550155Y-90840724D01*
X109535873Y-90916759D01*
X109526524Y-90964801D01*
X109515278Y-91040848D01*
X109512242Y-91108683D01*
X109518649Y-91174280D01*
X109535735Y-91243617D01*
X109564736Y-91322669D01*
X109606886Y-91417411D01*
X109663421Y-91533819D01*
X109716968Y-91639638D01*
X109793885Y-91782193D01*
X109864928Y-91899950D01*
X109932689Y-91996136D01*
X109999763Y-92073977D01*
X110068744Y-92136699D01*
X110142224Y-92187529D01*
X110222797Y-92229693D01*
X110344572Y-92276525D01*
X110485180Y-92313393D01*
X110630647Y-92336450D01*
X110774484Y-92345317D01*
X110910200Y-92339612D01*
X111031306Y-92318954D01*
X111131312Y-92282965D01*
X111158259Y-92268534D01*
X111214460Y-92233908D01*
X111269629Y-92195127D01*
X111317184Y-92157259D01*
X111350543Y-92125370D01*
X111363125Y-92104525D01*
X111363123Y-92104393D01*
X111350259Y-92087540D01*
X111315913Y-92057792D01*
X111265266Y-92019309D01*
X111203498Y-91976254D01*
X111172331Y-91954848D01*
X111010428Y-91827744D01*
X110847697Y-91674962D01*
X110687964Y-91501197D01*
X110535055Y-91311142D01*
X110392794Y-91109493D01*
X110265006Y-90900943D01*
X110155517Y-90690187D01*
X110107317Y-90583117D01*
X110056450Y-90451164D01*
X110020261Y-90326292D01*
X109995899Y-90198177D01*
X109980513Y-90056494D01*
X109973065Y-89936282D01*
X109971499Y-89783137D01*
X109977106Y-89709160D01*
X110281837Y-89709160D01*
X110289936Y-89747236D01*
X110293610Y-89764858D01*
X110303387Y-89813011D01*
X110314431Y-89868450D01*
X110327126Y-89922515D01*
X110376890Y-90062630D01*
X110448097Y-90201699D01*
X110535846Y-90332061D01*
X110635236Y-90446051D01*
X110741367Y-90536008D01*
X110765187Y-90552231D01*
X110892885Y-90628179D01*
X111030289Y-90694545D01*
X111162391Y-90743916D01*
X111167818Y-90745588D01*
X111221076Y-90761729D01*
X111260352Y-90773160D01*
X111277485Y-90777500D01*
X111277944Y-90777427D01*
X111282634Y-90760799D01*
X111283645Y-90719336D01*
X111281718Y-90671635D01*
X111791870Y-90671635D01*
X111793319Y-90719336D01*
X111793487Y-90724882D01*
X111797714Y-90762554D01*
X111803657Y-90776568D01*
X111803742Y-90776561D01*
X111824066Y-90771081D01*
X111865349Y-90757822D01*
X111918750Y-90739621D01*
X112114744Y-90658132D01*
X112290887Y-90556037D01*
X112441361Y-90435458D01*
X112566035Y-90296542D01*
X112664777Y-90139439D01*
X112737455Y-89964295D01*
X112783937Y-89771258D01*
X112794120Y-89709579D01*
X112664715Y-89720867D01*
X112541349Y-89735618D01*
X112399773Y-89766801D01*
X112278540Y-89813822D01*
X112172240Y-89879518D01*
X112075458Y-89966725D01*
X111982784Y-90078280D01*
X111946055Y-90130166D01*
X111874603Y-90253581D01*
X111826927Y-90379047D01*
X111800269Y-90515117D01*
X111791870Y-90670343D01*
X111791870Y-90671635D01*
X111281718Y-90671635D01*
X111281219Y-90659280D01*
X111275600Y-90586877D01*
X111267029Y-90508371D01*
X111252966Y-90417996D01*
X111223382Y-90303426D01*
X111179917Y-90202339D01*
X111118769Y-90104374D01*
X111087358Y-90062234D01*
X110981627Y-89945998D01*
X110864406Y-89855610D01*
X110732007Y-89789075D01*
X110580742Y-89744400D01*
X110406923Y-89719592D01*
X110281837Y-89709160D01*
X109977106Y-89709160D01*
X109981759Y-89647758D01*
X110004905Y-89522842D01*
X110041999Y-89401085D01*
X110094105Y-89275182D01*
X110140093Y-89181867D01*
X110260986Y-88984595D01*
X110402952Y-88810891D01*
X110565406Y-88661252D01*
X110747763Y-88536174D01*
X110949436Y-88436156D01*
X111169840Y-88361694D01*
X111240941Y-88346022D01*
X111367479Y-88328934D01*
X111507408Y-88320074D01*
X111650262Y-88319676D01*
X111785574Y-88327977D01*
X111902875Y-88345212D01*
X112052920Y-88382839D01*
X112246486Y-88454639D01*
X112423837Y-88550762D01*
X112589206Y-88673617D01*
X112746831Y-88825617D01*
X112776784Y-88858244D01*
X112874612Y-88971389D01*
X112951542Y-89074256D01*
X113011259Y-89173608D01*
X113057444Y-89276210D01*
X113093782Y-89388825D01*
X113123955Y-89518217D01*
X113141505Y-89620973D01*
X113152092Y-89709579D01*
X113156187Y-89743860D01*
G36*
X113156187Y-89743860D02*
G01*
X113165707Y-89869461D01*
X113169619Y-89989351D01*
X113167479Y-90095107D01*
X113158841Y-90178305D01*
X113143546Y-90252203D01*
X113095772Y-90415530D01*
X113027810Y-90591769D01*
X112942220Y-90775642D01*
X112841559Y-90961871D01*
X112728386Y-91145178D01*
X112605258Y-91320286D01*
X112582165Y-91349650D01*
X112519810Y-91422161D01*
X112441093Y-91507610D01*
X112351218Y-91600839D01*
X112255388Y-91696687D01*
X112158807Y-91789994D01*
X112066679Y-91875602D01*
X111984209Y-91948350D01*
X111916599Y-92003079D01*
X111881585Y-92031405D01*
X111846591Y-92067901D01*
X111836828Y-92093065D01*
X111838638Y-92100234D01*
X111867539Y-92152435D01*
X111922167Y-92208512D01*
X111998026Y-92265431D01*
X112090617Y-92320158D01*
X112195444Y-92369660D01*
X112308009Y-92410903D01*
X112387802Y-92436678D01*
X112470110Y-92467136D01*
X112532340Y-92498137D01*
X112580551Y-92534496D01*
X112620797Y-92581030D01*
X112659138Y-92642556D01*
X112701628Y-92723888D01*
X112711158Y-92743201D01*
X112768806Y-92878364D01*
X112813466Y-93021505D01*
X112846367Y-93178307D01*
X112868742Y-93354453D01*
X112881821Y-93555625D01*
X112884542Y-93685249D01*
X112873206Y-93940106D01*
X112839155Y-94175712D01*
X112782591Y-94390886D01*
X112703721Y-94584449D01*
X112684722Y-94621784D01*
X112635163Y-94706284D01*
X112579564Y-94779759D01*
X112510691Y-94851030D01*
X112421310Y-94928922D01*
X112418972Y-94930857D01*
X112387605Y-94959229D01*
X112362362Y-94989269D01*
X112341973Y-95025260D01*
X112325168Y-95071479D01*
X112310678Y-95132209D01*
X112297231Y-95211727D01*
X112283558Y-95314315D01*
X112268389Y-95444253D01*
X112267786Y-95449653D01*
X112259867Y-95526841D01*
X112250747Y-95625306D01*
X112240787Y-95740239D01*
X112230348Y-95866830D01*
X112219788Y-96000269D01*
X112209469Y-96135747D01*
X112199749Y-96268453D01*
X112190990Y-96393578D01*
X112183550Y-96506313D01*
X112177790Y-96601847D01*
X112174070Y-96675371D01*
X112172750Y-96722075D01*
X112172750Y-96774678D01*
X112335469Y-96793349D01*
X112451192Y-96807576D01*
X112666585Y-96840355D01*
X112852438Y-96878291D01*
X113010034Y-96921917D01*
X113140656Y-96971768D01*
X113245589Y-97028378D01*
X113326118Y-97092281D01*
X113383524Y-97164011D01*
X113419094Y-97244102D01*
X113428964Y-97287055D01*
X113438902Y-97358981D01*
X113442750Y-97429658D01*
X113442746Y-97432122D01*
X113434560Y-97521925D01*
X113408667Y-97588519D01*
X113362019Y-97636782D01*
X113291571Y-97671588D01*
X113224302Y-97687239D01*
X113129432Y-97695750D01*
X113017267Y-97696391D01*
X112894597Y-97689719D01*
X112768214Y-97676294D01*
X112644907Y-97656675D01*
X112531468Y-97631420D01*
X112434688Y-97601087D01*
X112418224Y-97594054D01*
X112373684Y-97573540D01*
X112308421Y-97542636D01*
X112226976Y-97503513D01*
X112133888Y-97458342D01*
X112033695Y-97409295D01*
X111963435Y-97375168D01*
X111866361Y-97329396D01*
X111778780Y-97289672D01*
X111705404Y-97258065D01*
X111650941Y-97236646D01*
X111620101Y-97227485D01*
X111603240Y-97226087D01*
X111574369Y-97228395D01*
X111538761Y-97238022D01*
X111491111Y-97256900D01*
X111426115Y-97286963D01*
X111338469Y-97330145D01*
X111322664Y-97338021D01*
X111122085Y-97432901D01*
X110929245Y-97514900D01*
X110749849Y-97581724D01*
X110589600Y-97631082D01*
X110556252Y-97639794D01*
X110493840Y-97654082D01*
X110434564Y-97663707D01*
X110369707Y-97669602D01*
X110290550Y-97672696D01*
X110188375Y-97673921D01*
X110128064Y-97674071D01*
X110046306Y-97673240D01*
X109987266Y-97670578D01*
X109945246Y-97665560D01*
X109914548Y-97657660D01*
X109889472Y-97646353D01*
X109862036Y-97627531D01*
X109815209Y-97568159D01*
X109786178Y-97485278D01*
X109776063Y-97381500D01*
X109778195Y-97313227D01*
X109791841Y-97226897D01*
X109820405Y-97156590D01*
X109866549Y-97093843D01*
X109901650Y-97060575D01*
X109987314Y-97002646D01*
X110098715Y-96948131D01*
X110232017Y-96898231D01*
X110383380Y-96854144D01*
X110548968Y-96817069D01*
X110724940Y-96788205D01*
X110907459Y-96768749D01*
X111047106Y-96757888D01*
X111037952Y-96652975D01*
X111036623Y-96636656D01*
X111032584Y-96581424D01*
X111027099Y-96501589D01*
X111020484Y-96401947D01*
X111013055Y-96287291D01*
X111005129Y-96162419D01*
X110997021Y-96032125D01*
X110996646Y-96026048D01*
X110982885Y-95815476D01*
X110968883Y-95632143D01*
X110953763Y-95471665D01*
X110936646Y-95329654D01*
X110916654Y-95201727D01*
X110892910Y-95083497D01*
X110864535Y-94970579D01*
X110830653Y-94858587D01*
X110790383Y-94743136D01*
X110742850Y-94619839D01*
X110687175Y-94484312D01*
X110682254Y-94472559D01*
X110659720Y-94416760D01*
X110644083Y-94370683D01*
X110633827Y-94326036D01*
X110627437Y-94274525D01*
X110623397Y-94207856D01*
X110620193Y-94117739D01*
X110619582Y-93916373D01*
X110630006Y-93684164D01*
X110651261Y-93436260D01*
X110682875Y-93179707D01*
X110688432Y-93139617D01*
X110700403Y-93039764D01*
X110705219Y-92964665D01*
X110702350Y-92909583D01*
X110691268Y-92869781D01*
X110671444Y-92840523D01*
X110642346Y-92817071D01*
X110627453Y-92809694D01*
X110584128Y-92792383D01*
X110520383Y-92769168D01*
X110442075Y-92742161D01*
X110355063Y-92713474D01*
X110311170Y-92698967D01*
X110211459Y-92663756D01*
X110114462Y-92626787D01*
X110029420Y-92591655D01*
X109965576Y-92561956D01*
X109937173Y-92546806D01*
X109832776Y-92482484D01*
X109732903Y-92408661D01*
X109646033Y-92332006D01*
X109580646Y-92259189D01*
X109567306Y-92240399D01*
X109526452Y-92173808D01*
X109478462Y-92085437D01*
X109426237Y-91981004D01*
X109372678Y-91866227D01*
X109320686Y-91746824D01*
X109289178Y-91673542D01*
X109240960Y-91572235D01*
X109194397Y-91492781D01*
X109144968Y-91429779D01*
X109088149Y-91377831D01*
X109019417Y-91331538D01*
X108934250Y-91285499D01*
X108895656Y-91265608D01*
X108813092Y-91217506D01*
X108752333Y-91170928D01*
X108707106Y-91120523D01*
X108671142Y-91060938D01*
X108655638Y-91028080D01*
X108625221Y-90947868D01*
X108603215Y-90867322D01*
X108591908Y-90795830D01*
X108593590Y-90742782D01*
X108606549Y-90713804D01*
X108640574Y-90666159D01*
X108688395Y-90611482D01*
X108743476Y-90556249D01*
X108799283Y-90506939D01*
X108849283Y-90470027D01*
X108886940Y-90451993D01*
X108906889Y-90446888D01*
X108921837Y-90439157D01*
X108928246Y-90426299D01*
X108924712Y-90405346D01*
X108909832Y-90373330D01*
X108882201Y-90327285D01*
X108840418Y-90264242D01*
X108783077Y-90181234D01*
X108708776Y-90075293D01*
X108656563Y-89995829D01*
X108598028Y-89888755D01*
X108558656Y-89791363D01*
X108540948Y-89709109D01*
X108538028Y-89662753D01*
X108542553Y-89633148D01*
X108560249Y-89613115D01*
X108596490Y-89591247D01*
X108638721Y-89570580D01*
X108675253Y-89564488D01*
X108718807Y-89572713D01*
X108741234Y-89581256D01*
X108793830Y-89612806D01*
X108844577Y-89655781D01*
X108867304Y-89681516D01*
X108915010Y-89748367D01*
X108965498Y-89832338D01*
X109014136Y-89924918D01*
X109056294Y-90017598D01*
X109087340Y-90101869D01*
X109116581Y-90196175D01*
X109127688Y-90133619D01*
X109131955Y-90095197D01*
X109135745Y-90032524D01*
X109138474Y-89955394D01*
X109139735Y-89872625D01*
X109140863Y-89801856D01*
X109146484Y-89713790D01*
X109158408Y-89648003D01*
X109178448Y-89598829D01*
X109208418Y-89560603D01*
X109250129Y-89527660D01*
X109258392Y-89522370D01*
X109327248Y-89495258D01*
X109393741Y-89497822D01*
X109453272Y-89530010D01*
X109473237Y-89548603D01*
X109486860Y-89568882D01*
X109493941Y-89596996D01*
X109496391Y-89640914D01*
X109496121Y-89708604D01*
X109495276Y-89736278D01*
X109487385Y-89831701D01*
X109472599Y-89941167D01*
X109452465Y-90052501D01*
X109432785Y-90150139D01*
X109419484Y-90225613D01*
X109413508Y-90280975D01*
X109415088Y-90321753D01*
X109424454Y-90353472D01*
X109441838Y-90381659D01*
X109467470Y-90411841D01*
X109518279Y-90485496D01*
X109555841Y-90583883D01*
X109569257Y-90688741D01*
X109568063Y-90711780D01*
X109561386Y-90768975D01*
X109550155Y-90840724D01*
X109535873Y-90916759D01*
X109526524Y-90964801D01*
X109515278Y-91040848D01*
X109512242Y-91108683D01*
X109518649Y-91174280D01*
X109535735Y-91243617D01*
X109564736Y-91322669D01*
X109606886Y-91417411D01*
X109663421Y-91533819D01*
X109716968Y-91639638D01*
X109793885Y-91782193D01*
X109864928Y-91899950D01*
X109932689Y-91996136D01*
X109999763Y-92073977D01*
X110068744Y-92136699D01*
X110142224Y-92187529D01*
X110222797Y-92229693D01*
X110344572Y-92276525D01*
X110485180Y-92313393D01*
X110630647Y-92336450D01*
X110774484Y-92345317D01*
X110910200Y-92339612D01*
X111031306Y-92318954D01*
X111131312Y-92282965D01*
X111158259Y-92268534D01*
X111214460Y-92233908D01*
X111269629Y-92195127D01*
X111317184Y-92157259D01*
X111350543Y-92125370D01*
X111363125Y-92104525D01*
X111363123Y-92104393D01*
X111350259Y-92087540D01*
X111315913Y-92057792D01*
X111265266Y-92019309D01*
X111203498Y-91976254D01*
X111172331Y-91954848D01*
X111010428Y-91827744D01*
X110847697Y-91674962D01*
X110687964Y-91501197D01*
X110535055Y-91311142D01*
X110392794Y-91109493D01*
X110265006Y-90900943D01*
X110155517Y-90690187D01*
X110107317Y-90583117D01*
X110056450Y-90451164D01*
X110020261Y-90326292D01*
X109995899Y-90198177D01*
X109980513Y-90056494D01*
X109973065Y-89936282D01*
X109971499Y-89783137D01*
X109977106Y-89709160D01*
X110281837Y-89709160D01*
X110289936Y-89747236D01*
X110293610Y-89764858D01*
X110303387Y-89813011D01*
X110314431Y-89868450D01*
X110327126Y-89922515D01*
X110376890Y-90062630D01*
X110448097Y-90201699D01*
X110535846Y-90332061D01*
X110635236Y-90446051D01*
X110741367Y-90536008D01*
X110765187Y-90552231D01*
X110892885Y-90628179D01*
X111030289Y-90694545D01*
X111162391Y-90743916D01*
X111167818Y-90745588D01*
X111221076Y-90761729D01*
X111260352Y-90773160D01*
X111277485Y-90777500D01*
X111277944Y-90777427D01*
X111282634Y-90760799D01*
X111283645Y-90719336D01*
X111281718Y-90671635D01*
X111791870Y-90671635D01*
X111793319Y-90719336D01*
X111793487Y-90724882D01*
X111797714Y-90762554D01*
X111803657Y-90776568D01*
X111803742Y-90776561D01*
X111824066Y-90771081D01*
X111865349Y-90757822D01*
X111918750Y-90739621D01*
X112114744Y-90658132D01*
X112290887Y-90556037D01*
X112441361Y-90435458D01*
X112566035Y-90296542D01*
X112664777Y-90139439D01*
X112737455Y-89964295D01*
X112783937Y-89771258D01*
X112794120Y-89709579D01*
X112664715Y-89720867D01*
X112541349Y-89735618D01*
X112399773Y-89766801D01*
X112278540Y-89813822D01*
X112172240Y-89879518D01*
X112075458Y-89966725D01*
X111982784Y-90078280D01*
X111946055Y-90130166D01*
X111874603Y-90253581D01*
X111826927Y-90379047D01*
X111800269Y-90515117D01*
X111791870Y-90670343D01*
X111791870Y-90671635D01*
X111281718Y-90671635D01*
X111281219Y-90659280D01*
X111275600Y-90586877D01*
X111267029Y-90508371D01*
X111252966Y-90417996D01*
X111223382Y-90303426D01*
X111179917Y-90202339D01*
X111118769Y-90104374D01*
X111087358Y-90062234D01*
X110981627Y-89945998D01*
X110864406Y-89855610D01*
X110732007Y-89789075D01*
X110580742Y-89744400D01*
X110406923Y-89719592D01*
X110281837Y-89709160D01*
X109977106Y-89709160D01*
X109981759Y-89647758D01*
X110004905Y-89522842D01*
X110041999Y-89401085D01*
X110094105Y-89275182D01*
X110140093Y-89181867D01*
X110260986Y-88984595D01*
X110402952Y-88810891D01*
X110565406Y-88661252D01*
X110747763Y-88536174D01*
X110949436Y-88436156D01*
X111169840Y-88361694D01*
X111240941Y-88346022D01*
X111367479Y-88328934D01*
X111507408Y-88320074D01*
X111650262Y-88319676D01*
X111785574Y-88327977D01*
X111902875Y-88345212D01*
X112052920Y-88382839D01*
X112246486Y-88454639D01*
X112423837Y-88550762D01*
X112589206Y-88673617D01*
X112746831Y-88825617D01*
X112776784Y-88858244D01*
X112874612Y-88971389D01*
X112951542Y-89074256D01*
X113011259Y-89173608D01*
X113057444Y-89276210D01*
X113093782Y-89388825D01*
X113123955Y-89518217D01*
X113141505Y-89620973D01*
X113152092Y-89709579D01*
X113156187Y-89743860D01*
G37*
%TD*%
M02*
