%TF.GenerationSoftware,KiCad,Pcbnew,7.0.5*%
%TF.CreationDate,2023-06-26T08:48:10-07:00*%
%TF.ProjectId,42Vdownto5V,34325664-6f77-46e7-946f-35562e6b6963,rev?*%
%TF.SameCoordinates,Original*%
%TF.FileFunction,Soldermask,Bot*%
%TF.FilePolarity,Negative*%
%FSLAX46Y46*%
G04 Gerber Fmt 4.6, Leading zero omitted, Abs format (unit mm)*
G04 Created by KiCad (PCBNEW 7.0.5) date 2023-06-26 08:48:10*
%MOMM*%
%LPD*%
G01*
G04 APERTURE LIST*
%ADD10C,0.010000*%
%ADD11R,1.700000X1.700000*%
%ADD12O,1.700000X1.700000*%
%ADD13C,0.800000*%
G04 APERTURE END LIST*
%TO.C,G\u002A\u002A\u002A*%
D10*
X105891237Y-99274588D02*
X105999083Y-99486517D01*
X106005524Y-99499226D01*
X106111587Y-99707109D01*
X106149249Y-99779667D01*
X106200531Y-99878466D01*
X106273276Y-100014954D01*
X106330742Y-100118229D01*
X106373850Y-100189947D01*
X106403518Y-100231763D01*
X106420668Y-100245334D01*
X106424248Y-100242362D01*
X106425934Y-100207586D01*
X106417004Y-100136038D01*
X106398009Y-100030609D01*
X106369501Y-99894192D01*
X106332031Y-99729680D01*
X106286152Y-99539965D01*
X106262157Y-99442525D01*
X106215064Y-99245809D01*
X106178109Y-99081266D01*
X106150246Y-98942959D01*
X106130428Y-98824952D01*
X106117610Y-98721306D01*
X106110746Y-98626085D01*
X106108789Y-98533353D01*
X106108797Y-98528815D01*
X106110728Y-98412018D01*
X106118441Y-98330740D01*
X106135673Y-98278428D01*
X106166158Y-98248528D01*
X106213631Y-98234487D01*
X106281829Y-98229750D01*
X106302164Y-98231194D01*
X106356756Y-98252541D01*
X106418356Y-98300481D01*
X106488024Y-98376615D01*
X106566822Y-98482543D01*
X106655813Y-98619864D01*
X106756057Y-98790179D01*
X106868618Y-98995087D01*
X106994557Y-99236189D01*
X107134936Y-99515084D01*
X107193426Y-99633995D01*
X107289465Y-99832427D01*
X107390693Y-100044764D01*
X107491011Y-100258096D01*
X107584323Y-100459518D01*
X107664530Y-100636120D01*
X107679311Y-100669149D01*
X107754764Y-100839440D01*
X107813322Y-100976263D01*
X107855961Y-101083734D01*
X107883659Y-101165970D01*
X107897393Y-101227091D01*
X107898141Y-101271213D01*
X107886879Y-101302454D01*
X107864584Y-101324931D01*
X107832235Y-101342763D01*
X107816336Y-101349641D01*
X107750164Y-101365101D01*
X107694453Y-101347651D01*
X107636196Y-101294060D01*
X107598380Y-101248418D01*
X107556420Y-101190875D01*
X107512620Y-101122530D01*
X107465192Y-101039843D01*
X107412343Y-100939272D01*
X107352285Y-100817277D01*
X107283226Y-100670318D01*
X107203376Y-100494855D01*
X107110944Y-100287345D01*
X107004139Y-100044250D01*
X106966092Y-99957732D01*
X106893057Y-99794318D01*
X106822302Y-99639252D01*
X106755923Y-99496884D01*
X106696012Y-99371564D01*
X106644664Y-99267642D01*
X106603973Y-99189467D01*
X106576033Y-99141389D01*
X106562938Y-99127758D01*
X106562804Y-99131957D01*
X106568940Y-99168060D01*
X106583007Y-99234804D01*
X106603393Y-99324739D01*
X106628484Y-99430417D01*
X106680176Y-99654874D01*
X106734719Y-99927443D01*
X106774055Y-100173169D01*
X106798115Y-100390269D01*
X106806833Y-100576959D01*
X106800142Y-100731458D01*
X106777975Y-100851982D01*
X106740264Y-100936748D01*
X106686943Y-100983974D01*
X106679752Y-100986861D01*
X106613785Y-100989852D01*
X106534625Y-100962046D01*
X106450933Y-100907643D01*
X106371370Y-100830848D01*
X106366513Y-100825157D01*
X106295310Y-100732048D01*
X106219159Y-100617838D01*
X106146108Y-100495904D01*
X106084200Y-100379624D01*
X106041483Y-100282375D01*
X105996994Y-100160667D01*
X105625778Y-100160667D01*
X105617925Y-100536375D01*
X105615845Y-100619573D01*
X105609633Y-100762294D01*
X105599898Y-100870331D01*
X105585513Y-100948807D01*
X105565351Y-101002846D01*
X105538286Y-101037573D01*
X105503191Y-101058111D01*
X105469563Y-101065073D01*
X105402464Y-101059073D01*
X105339021Y-101035426D01*
X105298301Y-100999579D01*
X105289501Y-100967900D01*
X105281462Y-100900106D01*
X105275795Y-100807942D01*
X105272644Y-100700995D01*
X105272153Y-100588848D01*
X105274465Y-100481086D01*
X105279724Y-100387293D01*
X105288073Y-100317054D01*
X105303730Y-100230025D01*
X105193541Y-100250053D01*
X105184772Y-100251685D01*
X105081005Y-100275407D01*
X104967360Y-100307732D01*
X104856684Y-100344429D01*
X104761824Y-100381270D01*
X104695625Y-100414023D01*
X104666423Y-100434759D01*
X104629997Y-100482851D01*
X104628641Y-100539899D01*
X104662895Y-100609956D01*
X104733298Y-100697078D01*
X104749116Y-100713918D01*
X104860499Y-100814042D01*
X105005769Y-100917991D01*
X105187435Y-101027424D01*
X105408001Y-101144002D01*
X105586738Y-101226691D01*
X105878054Y-101338296D01*
X106188876Y-101433182D01*
X106506341Y-101507571D01*
X106817583Y-101557689D01*
X106866002Y-101563679D01*
X106990422Y-101581485D01*
X107080643Y-101600254D01*
X107142751Y-101622737D01*
X107182836Y-101651679D01*
X107206982Y-101689829D01*
X107221278Y-101739935D01*
X107223096Y-101770225D01*
X107202661Y-101837404D01*
X107157344Y-101893400D01*
X107097620Y-101922728D01*
X107058476Y-101926753D01*
X106957660Y-101925437D01*
X106827859Y-101913447D01*
X106676578Y-101891923D01*
X106511321Y-101862007D01*
X106339592Y-101824838D01*
X106168897Y-101781559D01*
X105952506Y-101717619D01*
X105684630Y-101625582D01*
X105428227Y-101523477D01*
X105187642Y-101413611D01*
X104967221Y-101298292D01*
X104771311Y-101179826D01*
X104604258Y-101060522D01*
X104470406Y-100942687D01*
X104374102Y-100828627D01*
X104308715Y-100712320D01*
X104275803Y-100593858D01*
X104276594Y-100468170D01*
X104290476Y-100396675D01*
X104343025Y-100276089D01*
X104430778Y-100175736D01*
X104555001Y-100094357D01*
X104716960Y-100030692D01*
X104748056Y-100021569D01*
X104792652Y-100008533D01*
X104821194Y-99996497D01*
X104831047Y-99981812D01*
X104819577Y-99960828D01*
X104784149Y-99929897D01*
X104722130Y-99885371D01*
X104630886Y-99823600D01*
X104507782Y-99740936D01*
X104476417Y-99719609D01*
X104316194Y-99602763D01*
X104190705Y-99494248D01*
X104095694Y-99388677D01*
X104026908Y-99280660D01*
X103980092Y-99164811D01*
X103950991Y-99035740D01*
X103946280Y-99001655D01*
X103945912Y-98977496D01*
X104293151Y-98977496D01*
X104321995Y-99070572D01*
X104378185Y-99173321D01*
X104459972Y-99280035D01*
X104494376Y-99315779D01*
X104588695Y-99397024D01*
X104703993Y-99481387D01*
X104827814Y-99560635D01*
X104947705Y-99626535D01*
X105051211Y-99670855D01*
X105121181Y-99694113D01*
X105176087Y-99709972D01*
X105205490Y-99712673D01*
X105217319Y-99702667D01*
X105219500Y-99680403D01*
X105217362Y-99658152D01*
X105208955Y-99599292D01*
X105195307Y-99512840D01*
X105177632Y-99405732D01*
X105157144Y-99284904D01*
X105152804Y-99259827D01*
X105520685Y-99259827D01*
X105520989Y-99284333D01*
X105526558Y-99341955D01*
X105536478Y-99424375D01*
X105549834Y-99523279D01*
X105572068Y-99680403D01*
X105586114Y-99779667D01*
X105790785Y-99779667D01*
X105659449Y-99515999D01*
X105642684Y-99482520D01*
X105596792Y-99392802D01*
X105558812Y-99321353D01*
X105532306Y-99274761D01*
X105520833Y-99259611D01*
X105520685Y-99259827D01*
X105152804Y-99259827D01*
X105145694Y-99218750D01*
X105494666Y-99218750D01*
X105505250Y-99229334D01*
X105515833Y-99218750D01*
X105505250Y-99208167D01*
X105494666Y-99218750D01*
X105145694Y-99218750D01*
X105135056Y-99157292D01*
X105112584Y-99029831D01*
X105090942Y-98909458D01*
X105071343Y-98803108D01*
X105055001Y-98717718D01*
X105043132Y-98660223D01*
X105036948Y-98637559D01*
X105023795Y-98636239D01*
X104976048Y-98640145D01*
X104902456Y-98649803D01*
X104812253Y-98664122D01*
X104779368Y-98670054D01*
X104635356Y-98703618D01*
X104505500Y-98745753D01*
X104399182Y-98793031D01*
X104325782Y-98842019D01*
X104324497Y-98843203D01*
X104293402Y-98899803D01*
X104293151Y-98977496D01*
X103945912Y-98977496D01*
X103944200Y-98865116D01*
X103974437Y-98747854D01*
X104039480Y-98645638D01*
X104141815Y-98554237D01*
X104283930Y-98469419D01*
X104372466Y-98429888D01*
X104499069Y-98383346D01*
X104639514Y-98339281D01*
X104778929Y-98302320D01*
X104902442Y-98277085D01*
X105011525Y-98263700D01*
X105115663Y-98266260D01*
X105203338Y-98292745D01*
X105286787Y-98347184D01*
X105378250Y-98433601D01*
X105406094Y-98463307D01*
X105452365Y-98516648D01*
X105497955Y-98575604D01*
X105545257Y-98644235D01*
X105596666Y-98726599D01*
X105654574Y-98826756D01*
X105721377Y-98948767D01*
X105799466Y-99096691D01*
X105862433Y-99218750D01*
X105891237Y-99274588D01*
G36*
X105891237Y-99274588D02*
G01*
X105999083Y-99486517D01*
X106005524Y-99499226D01*
X106111587Y-99707109D01*
X106149249Y-99779667D01*
X106200531Y-99878466D01*
X106273276Y-100014954D01*
X106330742Y-100118229D01*
X106373850Y-100189947D01*
X106403518Y-100231763D01*
X106420668Y-100245334D01*
X106424248Y-100242362D01*
X106425934Y-100207586D01*
X106417004Y-100136038D01*
X106398009Y-100030609D01*
X106369501Y-99894192D01*
X106332031Y-99729680D01*
X106286152Y-99539965D01*
X106262157Y-99442525D01*
X106215064Y-99245809D01*
X106178109Y-99081266D01*
X106150246Y-98942959D01*
X106130428Y-98824952D01*
X106117610Y-98721306D01*
X106110746Y-98626085D01*
X106108789Y-98533353D01*
X106108797Y-98528815D01*
X106110728Y-98412018D01*
X106118441Y-98330740D01*
X106135673Y-98278428D01*
X106166158Y-98248528D01*
X106213631Y-98234487D01*
X106281829Y-98229750D01*
X106302164Y-98231194D01*
X106356756Y-98252541D01*
X106418356Y-98300481D01*
X106488024Y-98376615D01*
X106566822Y-98482543D01*
X106655813Y-98619864D01*
X106756057Y-98790179D01*
X106868618Y-98995087D01*
X106994557Y-99236189D01*
X107134936Y-99515084D01*
X107193426Y-99633995D01*
X107289465Y-99832427D01*
X107390693Y-100044764D01*
X107491011Y-100258096D01*
X107584323Y-100459518D01*
X107664530Y-100636120D01*
X107679311Y-100669149D01*
X107754764Y-100839440D01*
X107813322Y-100976263D01*
X107855961Y-101083734D01*
X107883659Y-101165970D01*
X107897393Y-101227091D01*
X107898141Y-101271213D01*
X107886879Y-101302454D01*
X107864584Y-101324931D01*
X107832235Y-101342763D01*
X107816336Y-101349641D01*
X107750164Y-101365101D01*
X107694453Y-101347651D01*
X107636196Y-101294060D01*
X107598380Y-101248418D01*
X107556420Y-101190875D01*
X107512620Y-101122530D01*
X107465192Y-101039843D01*
X107412343Y-100939272D01*
X107352285Y-100817277D01*
X107283226Y-100670318D01*
X107203376Y-100494855D01*
X107110944Y-100287345D01*
X107004139Y-100044250D01*
X106966092Y-99957732D01*
X106893057Y-99794318D01*
X106822302Y-99639252D01*
X106755923Y-99496884D01*
X106696012Y-99371564D01*
X106644664Y-99267642D01*
X106603973Y-99189467D01*
X106576033Y-99141389D01*
X106562938Y-99127758D01*
X106562804Y-99131957D01*
X106568940Y-99168060D01*
X106583007Y-99234804D01*
X106603393Y-99324739D01*
X106628484Y-99430417D01*
X106680176Y-99654874D01*
X106734719Y-99927443D01*
X106774055Y-100173169D01*
X106798115Y-100390269D01*
X106806833Y-100576959D01*
X106800142Y-100731458D01*
X106777975Y-100851982D01*
X106740264Y-100936748D01*
X106686943Y-100983974D01*
X106679752Y-100986861D01*
X106613785Y-100989852D01*
X106534625Y-100962046D01*
X106450933Y-100907643D01*
X106371370Y-100830848D01*
X106366513Y-100825157D01*
X106295310Y-100732048D01*
X106219159Y-100617838D01*
X106146108Y-100495904D01*
X106084200Y-100379624D01*
X106041483Y-100282375D01*
X105996994Y-100160667D01*
X105625778Y-100160667D01*
X105617925Y-100536375D01*
X105615845Y-100619573D01*
X105609633Y-100762294D01*
X105599898Y-100870331D01*
X105585513Y-100948807D01*
X105565351Y-101002846D01*
X105538286Y-101037573D01*
X105503191Y-101058111D01*
X105469563Y-101065073D01*
X105402464Y-101059073D01*
X105339021Y-101035426D01*
X105298301Y-100999579D01*
X105289501Y-100967900D01*
X105281462Y-100900106D01*
X105275795Y-100807942D01*
X105272644Y-100700995D01*
X105272153Y-100588848D01*
X105274465Y-100481086D01*
X105279724Y-100387293D01*
X105288073Y-100317054D01*
X105303730Y-100230025D01*
X105193541Y-100250053D01*
X105184772Y-100251685D01*
X105081005Y-100275407D01*
X104967360Y-100307732D01*
X104856684Y-100344429D01*
X104761824Y-100381270D01*
X104695625Y-100414023D01*
X104666423Y-100434759D01*
X104629997Y-100482851D01*
X104628641Y-100539899D01*
X104662895Y-100609956D01*
X104733298Y-100697078D01*
X104749116Y-100713918D01*
X104860499Y-100814042D01*
X105005769Y-100917991D01*
X105187435Y-101027424D01*
X105408001Y-101144002D01*
X105586738Y-101226691D01*
X105878054Y-101338296D01*
X106188876Y-101433182D01*
X106506341Y-101507571D01*
X106817583Y-101557689D01*
X106866002Y-101563679D01*
X106990422Y-101581485D01*
X107080643Y-101600254D01*
X107142751Y-101622737D01*
X107182836Y-101651679D01*
X107206982Y-101689829D01*
X107221278Y-101739935D01*
X107223096Y-101770225D01*
X107202661Y-101837404D01*
X107157344Y-101893400D01*
X107097620Y-101922728D01*
X107058476Y-101926753D01*
X106957660Y-101925437D01*
X106827859Y-101913447D01*
X106676578Y-101891923D01*
X106511321Y-101862007D01*
X106339592Y-101824838D01*
X106168897Y-101781559D01*
X105952506Y-101717619D01*
X105684630Y-101625582D01*
X105428227Y-101523477D01*
X105187642Y-101413611D01*
X104967221Y-101298292D01*
X104771311Y-101179826D01*
X104604258Y-101060522D01*
X104470406Y-100942687D01*
X104374102Y-100828627D01*
X104308715Y-100712320D01*
X104275803Y-100593858D01*
X104276594Y-100468170D01*
X104290476Y-100396675D01*
X104343025Y-100276089D01*
X104430778Y-100175736D01*
X104555001Y-100094357D01*
X104716960Y-100030692D01*
X104748056Y-100021569D01*
X104792652Y-100008533D01*
X104821194Y-99996497D01*
X104831047Y-99981812D01*
X104819577Y-99960828D01*
X104784149Y-99929897D01*
X104722130Y-99885371D01*
X104630886Y-99823600D01*
X104507782Y-99740936D01*
X104476417Y-99719609D01*
X104316194Y-99602763D01*
X104190705Y-99494248D01*
X104095694Y-99388677D01*
X104026908Y-99280660D01*
X103980092Y-99164811D01*
X103950991Y-99035740D01*
X103946280Y-99001655D01*
X103945912Y-98977496D01*
X104293151Y-98977496D01*
X104321995Y-99070572D01*
X104378185Y-99173321D01*
X104459972Y-99280035D01*
X104494376Y-99315779D01*
X104588695Y-99397024D01*
X104703993Y-99481387D01*
X104827814Y-99560635D01*
X104947705Y-99626535D01*
X105051211Y-99670855D01*
X105121181Y-99694113D01*
X105176087Y-99709972D01*
X105205490Y-99712673D01*
X105217319Y-99702667D01*
X105219500Y-99680403D01*
X105217362Y-99658152D01*
X105208955Y-99599292D01*
X105195307Y-99512840D01*
X105177632Y-99405732D01*
X105157144Y-99284904D01*
X105152804Y-99259827D01*
X105520685Y-99259827D01*
X105520989Y-99284333D01*
X105526558Y-99341955D01*
X105536478Y-99424375D01*
X105549834Y-99523279D01*
X105572068Y-99680403D01*
X105586114Y-99779667D01*
X105790785Y-99779667D01*
X105659449Y-99515999D01*
X105642684Y-99482520D01*
X105596792Y-99392802D01*
X105558812Y-99321353D01*
X105532306Y-99274761D01*
X105520833Y-99259611D01*
X105520685Y-99259827D01*
X105152804Y-99259827D01*
X105145694Y-99218750D01*
X105494666Y-99218750D01*
X105505250Y-99229334D01*
X105515833Y-99218750D01*
X105505250Y-99208167D01*
X105494666Y-99218750D01*
X105145694Y-99218750D01*
X105135056Y-99157292D01*
X105112584Y-99029831D01*
X105090942Y-98909458D01*
X105071343Y-98803108D01*
X105055001Y-98717718D01*
X105043132Y-98660223D01*
X105036948Y-98637559D01*
X105023795Y-98636239D01*
X104976048Y-98640145D01*
X104902456Y-98649803D01*
X104812253Y-98664122D01*
X104779368Y-98670054D01*
X104635356Y-98703618D01*
X104505500Y-98745753D01*
X104399182Y-98793031D01*
X104325782Y-98842019D01*
X104324497Y-98843203D01*
X104293402Y-98899803D01*
X104293151Y-98977496D01*
X103945912Y-98977496D01*
X103944200Y-98865116D01*
X103974437Y-98747854D01*
X104039480Y-98645638D01*
X104141815Y-98554237D01*
X104283930Y-98469419D01*
X104372466Y-98429888D01*
X104499069Y-98383346D01*
X104639514Y-98339281D01*
X104778929Y-98302320D01*
X104902442Y-98277085D01*
X105011525Y-98263700D01*
X105115663Y-98266260D01*
X105203338Y-98292745D01*
X105286787Y-98347184D01*
X105378250Y-98433601D01*
X105406094Y-98463307D01*
X105452365Y-98516648D01*
X105497955Y-98575604D01*
X105545257Y-98644235D01*
X105596666Y-98726599D01*
X105654574Y-98826756D01*
X105721377Y-98948767D01*
X105799466Y-99096691D01*
X105862433Y-99218750D01*
X105891237Y-99274588D01*
G37*
%TD*%
D11*
%TO.C,J2*%
X124460000Y-93980000D03*
D12*
X124460000Y-96520000D03*
%TD*%
D11*
%TO.C,J1*%
X104140000Y-92710000D03*
D12*
X104140000Y-90170000D03*
%TD*%
D13*
X108458000Y-100330000D03*
X117856000Y-101092000D03*
X107442000Y-94234000D03*
X107188000Y-91186000D03*
X124714000Y-102362000D03*
X125476000Y-101600000D03*
X126238000Y-100838000D03*
X104524000Y-102108000D03*
X103762000Y-101346000D03*
X103000000Y-100584000D03*
X103762000Y-86614000D03*
X104524000Y-85852000D03*
X125984000Y-87376000D03*
X125222000Y-86614000D03*
X124460000Y-85852000D03*
X123444000Y-91694000D03*
X122174000Y-91694000D03*
X120904000Y-91694000D03*
X119634000Y-91694000D03*
X118364000Y-91694000D03*
X124206000Y-98552000D03*
X118110000Y-97282000D03*
X117094000Y-97282000D03*
X116078000Y-97282000D03*
X115500000Y-91000000D03*
M02*
