%TF.GenerationSoftware,KiCad,Pcbnew,7.0.5*%
%TF.CreationDate,2023-06-26T08:48:10-07:00*%
%TF.ProjectId,42Vdownto5V,34325664-6f77-46e7-946f-35562e6b6963,rev?*%
%TF.SameCoordinates,Original*%
%TF.FileFunction,Copper,L1,Top*%
%TF.FilePolarity,Positive*%
%FSLAX46Y46*%
G04 Gerber Fmt 4.6, Leading zero omitted, Abs format (unit mm)*
G04 Created by KiCad (PCBNEW 7.0.5) date 2023-06-26 08:48:10*
%MOMM*%
%LPD*%
G01*
G04 APERTURE LIST*
G04 Aperture macros list*
%AMRoundRect*
0 Rectangle with rounded corners*
0 $1 Rounding radius*
0 $2 $3 $4 $5 $6 $7 $8 $9 X,Y pos of 4 corners*
0 Add a 4 corners polygon primitive as box body*
4,1,4,$2,$3,$4,$5,$6,$7,$8,$9,$2,$3,0*
0 Add four circle primitives for the rounded corners*
1,1,$1+$1,$2,$3*
1,1,$1+$1,$4,$5*
1,1,$1+$1,$6,$7*
1,1,$1+$1,$8,$9*
0 Add four rect primitives between the rounded corners*
20,1,$1+$1,$2,$3,$4,$5,0*
20,1,$1+$1,$4,$5,$6,$7,0*
20,1,$1+$1,$6,$7,$8,$9,0*
20,1,$1+$1,$8,$9,$2,$3,0*%
G04 Aperture macros list end*
%TA.AperFunction,SMDPad,CuDef*%
%ADD10RoundRect,0.150000X0.512500X0.150000X-0.512500X0.150000X-0.512500X-0.150000X0.512500X-0.150000X0*%
%TD*%
%TA.AperFunction,SMDPad,CuDef*%
%ADD11RoundRect,0.250000X0.450000X-0.350000X0.450000X0.350000X-0.450000X0.350000X-0.450000X-0.350000X0*%
%TD*%
%TA.AperFunction,SMDPad,CuDef*%
%ADD12RoundRect,0.250000X-0.450000X0.350000X-0.450000X-0.350000X0.450000X-0.350000X0.450000X0.350000X0*%
%TD*%
%TA.AperFunction,SMDPad,CuDef*%
%ADD13RoundRect,0.250000X0.350000X0.450000X-0.350000X0.450000X-0.350000X-0.450000X0.350000X-0.450000X0*%
%TD*%
%TA.AperFunction,SMDPad,CuDef*%
%ADD14R,4.200000X1.500000*%
%TD*%
%TA.AperFunction,ComponentPad*%
%ADD15R,1.700000X1.700000*%
%TD*%
%TA.AperFunction,ComponentPad*%
%ADD16O,1.700000X1.700000*%
%TD*%
%TA.AperFunction,SMDPad,CuDef*%
%ADD17RoundRect,0.250000X1.500000X0.650000X-1.500000X0.650000X-1.500000X-0.650000X1.500000X-0.650000X0*%
%TD*%
%TA.AperFunction,SMDPad,CuDef*%
%ADD18RoundRect,0.250000X0.337500X0.475000X-0.337500X0.475000X-0.337500X-0.475000X0.337500X-0.475000X0*%
%TD*%
%TA.AperFunction,SMDPad,CuDef*%
%ADD19RoundRect,0.250000X0.475000X-0.337500X0.475000X0.337500X-0.475000X0.337500X-0.475000X-0.337500X0*%
%TD*%
%TA.AperFunction,SMDPad,CuDef*%
%ADD20RoundRect,0.250000X-0.475000X0.337500X-0.475000X-0.337500X0.475000X-0.337500X0.475000X0.337500X0*%
%TD*%
%TA.AperFunction,ViaPad*%
%ADD21C,0.800000*%
%TD*%
%TA.AperFunction,Conductor*%
%ADD22C,0.508000*%
%TD*%
%TA.AperFunction,Conductor*%
%ADD23C,1.016000*%
%TD*%
G04 APERTURE END LIST*
D10*
%TO.P,U1,6,SW*%
%TO.N,/sw*%
X114432500Y-93660000D03*
%TO.P,U1,5,VIN*%
%TO.N,+BATT*%
X114432500Y-92710000D03*
%TO.P,U1,4,EN*%
%TO.N,/en*%
X114432500Y-91760000D03*
%TO.P,U1,3,FB*%
%TO.N,/feedback*%
X116707500Y-91760000D03*
%TO.P,U1,2,GND*%
%TO.N,GND*%
X116707500Y-92710000D03*
%TO.P,U1,1,CB*%
%TO.N,/cb*%
X116707500Y-93660000D03*
%TD*%
D11*
%TO.P,R5,1*%
%TO.N,+5V*%
X121920000Y-89630000D03*
%TO.P,R5,2*%
%TO.N,/rdiv_high*%
X121920000Y-87630000D03*
%TD*%
D12*
%TO.P,R4,1*%
%TO.N,/rdiv_high*%
X119380000Y-87630000D03*
%TO.P,R4,2*%
%TO.N,/feedback*%
X119380000Y-89630000D03*
%TD*%
%TO.P,R3,1*%
%TO.N,/rdiv_low*%
X114300000Y-87630000D03*
%TO.P,R3,2*%
%TO.N,GND*%
X114300000Y-89630000D03*
%TD*%
D11*
%TO.P,R2,2*%
%TO.N,/rdiv_low*%
X116840000Y-87630000D03*
%TO.P,R2,1*%
%TO.N,/feedback*%
X116840000Y-89630000D03*
%TD*%
D13*
%TO.P,R1,2*%
%TO.N,+BATT*%
X109490000Y-87630000D03*
%TO.P,R1,1*%
%TO.N,/en*%
X111490000Y-87630000D03*
%TD*%
D14*
%TO.P,L1,1*%
%TO.N,/sw*%
X116205000Y-95482000D03*
%TO.P,L1,2*%
%TO.N,+5V*%
X116205000Y-99082000D03*
%TD*%
D15*
%TO.P,J2,1,Pin_1*%
%TO.N,+5V*%
X124460000Y-93980000D03*
D16*
%TO.P,J2,2,Pin_2*%
%TO.N,GND*%
X124460000Y-96520000D03*
%TD*%
D15*
%TO.P,J1,1,Pin_1*%
%TO.N,+BATT*%
X104140000Y-92710000D03*
D16*
%TO.P,J1,2,Pin_2*%
%TO.N,GND*%
X104140000Y-90170000D03*
%TD*%
D17*
%TO.P,D1,1,K*%
%TO.N,/sw*%
X111085000Y-97790000D03*
%TO.P,D1,2,A*%
%TO.N,GND*%
X106085000Y-97790000D03*
%TD*%
D18*
%TO.P,C6,1*%
%TO.N,+5V*%
X112162500Y-100965000D03*
%TO.P,C6,2*%
%TO.N,GND*%
X110087500Y-100965000D03*
%TD*%
D19*
%TO.P,C5,1*%
%TO.N,+5V*%
X120015000Y-99462500D03*
%TO.P,C5,2*%
%TO.N,GND*%
X120015000Y-97387500D03*
%TD*%
D20*
%TO.P,C4,1*%
%TO.N,/cb*%
X120015000Y-93577500D03*
%TO.P,C4,2*%
%TO.N,/sw*%
X120015000Y-95652500D03*
%TD*%
D18*
%TO.P,C3,1*%
%TO.N,+BATT*%
X111527500Y-90170000D03*
%TO.P,C3,2*%
%TO.N,GND*%
X109452500Y-90170000D03*
%TD*%
D20*
%TO.P,C2,1*%
%TO.N,+BATT*%
X111760000Y-92942500D03*
%TO.P,C2,2*%
%TO.N,GND*%
X111760000Y-95017500D03*
%TD*%
%TO.P,C1,1*%
%TO.N,+BATT*%
X109220000Y-92942500D03*
%TO.P,C1,2*%
%TO.N,GND*%
X109220000Y-95017500D03*
%TD*%
D21*
%TO.N,GND*%
X108458000Y-100330000D03*
X117856000Y-101092000D03*
X107442000Y-94234000D03*
X107188000Y-91186000D03*
X124714000Y-102362000D03*
X125476000Y-101600000D03*
X126238000Y-100838000D03*
X104524000Y-102108000D03*
X103762000Y-101346000D03*
X103000000Y-100584000D03*
X103762000Y-86614000D03*
X104524000Y-85852000D03*
X125984000Y-87376000D03*
X125222000Y-86614000D03*
X124460000Y-85852000D03*
X123444000Y-91694000D03*
X122174000Y-91694000D03*
X120904000Y-91694000D03*
X119634000Y-91694000D03*
X118364000Y-91694000D03*
X124206000Y-98552000D03*
X118110000Y-97282000D03*
X117094000Y-97282000D03*
X116078000Y-97282000D03*
X115500000Y-91000000D03*
%TD*%
D22*
%TO.N,GND*%
X114300000Y-89800000D02*
X115500000Y-91000000D01*
X114300000Y-89630000D02*
X114300000Y-89800000D01*
D23*
%TO.N,+5V*%
X121136500Y-100584000D02*
X120015000Y-99462500D01*
X124460000Y-100584000D02*
X121136500Y-100584000D01*
X123666000Y-89630000D02*
X126238000Y-92202000D01*
X126238000Y-92202000D02*
X126238000Y-98806000D01*
X121920000Y-89630000D02*
X123666000Y-89630000D01*
X126238000Y-98806000D02*
X124460000Y-100584000D01*
%TO.N,/sw*%
X115086750Y-94363750D02*
X116205000Y-95482000D01*
D22*
X114300000Y-93792500D02*
X114300000Y-94363750D01*
X114432500Y-93660000D02*
X114300000Y-93792500D01*
D23*
X114300000Y-94363750D02*
X115086750Y-94363750D01*
X113128500Y-97790000D02*
X115436500Y-95482000D01*
X111085000Y-97790000D02*
X113128500Y-97790000D01*
X115436500Y-95482000D02*
X116205000Y-95482000D01*
X116205000Y-95482000D02*
X119844500Y-95482000D01*
X119844500Y-95482000D02*
X120015000Y-95652500D01*
D22*
%TO.N,GND*%
X115570122Y-91070122D02*
X115500000Y-91000000D01*
X115570122Y-92139307D02*
X115570122Y-91070122D01*
X116140815Y-92710000D02*
X115570122Y-92139307D01*
X116707500Y-92710000D02*
X116140815Y-92710000D01*
X116707500Y-92710000D02*
X118290000Y-92710000D01*
D23*
X109220000Y-95017500D02*
X111760000Y-95017500D01*
%TO.N,+5V*%
X122682000Y-99314000D02*
X122682000Y-95758000D01*
X122682000Y-95758000D02*
X124460000Y-93980000D01*
X120255817Y-99314000D02*
X122682000Y-99314000D01*
X120107317Y-99462500D02*
X120255817Y-99314000D01*
X120015000Y-99462500D02*
X120107317Y-99462500D01*
X114322000Y-100965000D02*
X116205000Y-99082000D01*
X112162500Y-100965000D02*
X114322000Y-100965000D01*
X116585500Y-99462500D02*
X116205000Y-99082000D01*
X120015000Y-99462500D02*
X116585500Y-99462500D01*
D22*
%TO.N,/feedback*%
X116707500Y-89762500D02*
X116840000Y-89630000D01*
X116707500Y-91760000D02*
X116707500Y-89762500D01*
%TO.N,/cb*%
X119932500Y-93660000D02*
X120015000Y-93577500D01*
X116707500Y-93660000D02*
X119932500Y-93660000D01*
%TO.N,/rdiv_high*%
X119380000Y-87630000D02*
X121920000Y-87630000D01*
%TO.N,/feedback*%
X116840000Y-89630000D02*
X119380000Y-89630000D01*
%TO.N,/rdiv_low*%
X114300000Y-87630000D02*
X116840000Y-87630000D01*
%TO.N,+BATT*%
X109490000Y-88132500D02*
X111527500Y-90170000D01*
X109490000Y-87630000D02*
X109490000Y-88132500D01*
%TO.N,/en*%
X112776000Y-90103500D02*
X114432500Y-91760000D01*
X112776000Y-88916000D02*
X112776000Y-90103500D01*
X111490000Y-87630000D02*
X112776000Y-88916000D01*
%TO.N,+BATT*%
X113538000Y-92710000D02*
X111992500Y-92710000D01*
X111992500Y-92710000D02*
X111760000Y-92942500D01*
X114432500Y-92710000D02*
X113538000Y-92710000D01*
D23*
X113538000Y-92710000D02*
X104140000Y-92710000D01*
X111760000Y-92942500D02*
X111760000Y-89937500D01*
X109220000Y-92942500D02*
X111760000Y-92942500D01*
X108987500Y-92710000D02*
X109220000Y-92942500D01*
X104140000Y-92710000D02*
X108987500Y-92710000D01*
%TD*%
%TA.AperFunction,Conductor*%
%TO.N,GND*%
G36*
X126002697Y-85000736D02*
G01*
X126045491Y-85004480D01*
X126171773Y-85016918D01*
X126191687Y-85020541D01*
X126257393Y-85038147D01*
X126259261Y-85038680D01*
X126351570Y-85066681D01*
X126367959Y-85072952D01*
X126421772Y-85098046D01*
X126435374Y-85104389D01*
X126438398Y-85105901D01*
X126522332Y-85150764D01*
X126528659Y-85154650D01*
X126564789Y-85179948D01*
X126594826Y-85200982D01*
X126598597Y-85203843D01*
X126670808Y-85263103D01*
X126675309Y-85267182D01*
X126732815Y-85324688D01*
X126736895Y-85329190D01*
X126796155Y-85401401D01*
X126799016Y-85405172D01*
X126833358Y-85454215D01*
X126845342Y-85471331D01*
X126849234Y-85477666D01*
X126894097Y-85561600D01*
X126895609Y-85564624D01*
X126927041Y-85632027D01*
X126933320Y-85648438D01*
X126961307Y-85740701D01*
X126961864Y-85742652D01*
X126979454Y-85808299D01*
X126983082Y-85828239D01*
X126995522Y-85954553D01*
X126999263Y-85997303D01*
X126999499Y-86002710D01*
X126999499Y-91237903D01*
X126979814Y-91304942D01*
X126927010Y-91350697D01*
X126857852Y-91360641D01*
X126794296Y-91331616D01*
X126787818Y-91325584D01*
X125611258Y-90149024D01*
X124416301Y-88954067D01*
X124412222Y-88949566D01*
X124407319Y-88943592D01*
X124394496Y-88927966D01*
X124382567Y-88913430D01*
X124229005Y-88787405D01*
X124228998Y-88787401D01*
X124053806Y-88693759D01*
X124025056Y-88685038D01*
X123863703Y-88636091D01*
X123731900Y-88623110D01*
X123666000Y-88616620D01*
X123665999Y-88616620D01*
X123619482Y-88621201D01*
X123613402Y-88621500D01*
X123078275Y-88621500D01*
X123011236Y-88601815D01*
X122965481Y-88549011D01*
X122955537Y-88479853D01*
X122972734Y-88432406D01*
X123054814Y-88299334D01*
X123109999Y-88132797D01*
X123120500Y-88030009D01*
X123120499Y-87229992D01*
X123109999Y-87127203D01*
X123054814Y-86960666D01*
X122962712Y-86811344D01*
X122838656Y-86687288D01*
X122689334Y-86595186D01*
X122522797Y-86540001D01*
X122522795Y-86540000D01*
X122420010Y-86529500D01*
X121419998Y-86529500D01*
X121419980Y-86529501D01*
X121317203Y-86540000D01*
X121317200Y-86540001D01*
X121150668Y-86595185D01*
X121150663Y-86595187D01*
X121001342Y-86687289D01*
X120877288Y-86811343D01*
X120874046Y-86816600D01*
X120822097Y-86863323D01*
X120768509Y-86875500D01*
X120531491Y-86875500D01*
X120464452Y-86855815D01*
X120425954Y-86816600D01*
X120422711Y-86811343D01*
X120298657Y-86687289D01*
X120298656Y-86687288D01*
X120149334Y-86595186D01*
X119982797Y-86540001D01*
X119982795Y-86540000D01*
X119880010Y-86529500D01*
X118879998Y-86529500D01*
X118879980Y-86529501D01*
X118777203Y-86540000D01*
X118777200Y-86540001D01*
X118610668Y-86595185D01*
X118610663Y-86595187D01*
X118461342Y-86687289D01*
X118337289Y-86811342D01*
X118245187Y-86960663D01*
X118245185Y-86960668D01*
X118227706Y-87013418D01*
X118187933Y-87070863D01*
X118123417Y-87097686D01*
X118054641Y-87085371D01*
X118003442Y-87037828D01*
X117992294Y-87013418D01*
X117974814Y-86960666D01*
X117882712Y-86811344D01*
X117758656Y-86687288D01*
X117609334Y-86595186D01*
X117442797Y-86540001D01*
X117442795Y-86540000D01*
X117340010Y-86529500D01*
X116339998Y-86529500D01*
X116339980Y-86529501D01*
X116237203Y-86540000D01*
X116237200Y-86540001D01*
X116070668Y-86595185D01*
X116070663Y-86595187D01*
X115921342Y-86687289D01*
X115797288Y-86811343D01*
X115794046Y-86816600D01*
X115742097Y-86863323D01*
X115688509Y-86875500D01*
X115451491Y-86875500D01*
X115384452Y-86855815D01*
X115345954Y-86816600D01*
X115342711Y-86811343D01*
X115218657Y-86687289D01*
X115218656Y-86687288D01*
X115069334Y-86595186D01*
X114902797Y-86540001D01*
X114902795Y-86540000D01*
X114800010Y-86529500D01*
X113799998Y-86529500D01*
X113799980Y-86529501D01*
X113697203Y-86540000D01*
X113697200Y-86540001D01*
X113530668Y-86595185D01*
X113530663Y-86595187D01*
X113381342Y-86687289D01*
X113257289Y-86811342D01*
X113165187Y-86960663D01*
X113165185Y-86960666D01*
X113165186Y-86960666D01*
X113110001Y-87127203D01*
X113110001Y-87127204D01*
X113110000Y-87127204D01*
X113099500Y-87229983D01*
X113099500Y-87873114D01*
X113079815Y-87940153D01*
X113027011Y-87985908D01*
X112957853Y-87995852D01*
X112894297Y-87966827D01*
X112887819Y-87960795D01*
X112626818Y-87699794D01*
X112593333Y-87638471D01*
X112590499Y-87612113D01*
X112590499Y-87129998D01*
X112590498Y-87129981D01*
X112579999Y-87027203D01*
X112579998Y-87027200D01*
X112557950Y-86960663D01*
X112524814Y-86860666D01*
X112432712Y-86711344D01*
X112308656Y-86587288D01*
X112159334Y-86495186D01*
X111992797Y-86440001D01*
X111992795Y-86440000D01*
X111890010Y-86429500D01*
X111089998Y-86429500D01*
X111089980Y-86429501D01*
X110987203Y-86440000D01*
X110987200Y-86440001D01*
X110820668Y-86495185D01*
X110820663Y-86495187D01*
X110671342Y-86587289D01*
X110577681Y-86680951D01*
X110516358Y-86714436D01*
X110446666Y-86709452D01*
X110402319Y-86680951D01*
X110308657Y-86587289D01*
X110308656Y-86587289D01*
X110308656Y-86587288D01*
X110159334Y-86495186D01*
X109992797Y-86440001D01*
X109992795Y-86440000D01*
X109890010Y-86429500D01*
X109089998Y-86429500D01*
X109089980Y-86429501D01*
X108987203Y-86440000D01*
X108987200Y-86440001D01*
X108820668Y-86495185D01*
X108820663Y-86495187D01*
X108671342Y-86587289D01*
X108547289Y-86711342D01*
X108455187Y-86860663D01*
X108455185Y-86860668D01*
X108450270Y-86875500D01*
X108400001Y-87027203D01*
X108400001Y-87027204D01*
X108400000Y-87027204D01*
X108389500Y-87129983D01*
X108389500Y-88130001D01*
X108389501Y-88130019D01*
X108400000Y-88232796D01*
X108400001Y-88232799D01*
X108450270Y-88384500D01*
X108455186Y-88399334D01*
X108547288Y-88548656D01*
X108671344Y-88672712D01*
X108820666Y-88764814D01*
X108823984Y-88765913D01*
X108825961Y-88767282D01*
X108827209Y-88767864D01*
X108827109Y-88768077D01*
X108881429Y-88805681D01*
X108908256Y-88870195D01*
X108895945Y-88938972D01*
X108848405Y-88990175D01*
X108823993Y-89001325D01*
X108795880Y-89010641D01*
X108795875Y-89010643D01*
X108646654Y-89102684D01*
X108522684Y-89226654D01*
X108430643Y-89375875D01*
X108430641Y-89375880D01*
X108375494Y-89542302D01*
X108375493Y-89542309D01*
X108365000Y-89645013D01*
X108365000Y-89920000D01*
X109578500Y-89920000D01*
X109645539Y-89939685D01*
X109691294Y-89992489D01*
X109702500Y-90044000D01*
X109702500Y-91394999D01*
X109839972Y-91394999D01*
X109839986Y-91394998D01*
X109942697Y-91384505D01*
X110109119Y-91329358D01*
X110109124Y-91329356D01*
X110258345Y-91237315D01*
X110382318Y-91113342D01*
X110384165Y-91110348D01*
X110385969Y-91108724D01*
X110386798Y-91107677D01*
X110386976Y-91107818D01*
X110436110Y-91063621D01*
X110505073Y-91052396D01*
X110569156Y-91080236D01*
X110595243Y-91110341D01*
X110597288Y-91113656D01*
X110597289Y-91113657D01*
X110715181Y-91231549D01*
X110748666Y-91292872D01*
X110751500Y-91319230D01*
X110751500Y-91577500D01*
X110731815Y-91644539D01*
X110679011Y-91690294D01*
X110627500Y-91701500D01*
X109040098Y-91701500D01*
X109034018Y-91701201D01*
X108987500Y-91696620D01*
X108940982Y-91701201D01*
X108934902Y-91701500D01*
X105551158Y-91701500D01*
X105484119Y-91681815D01*
X105438364Y-91629011D01*
X105434974Y-91620828D01*
X105433796Y-91617669D01*
X105433794Y-91617666D01*
X105433793Y-91617664D01*
X105347547Y-91502455D01*
X105347544Y-91502452D01*
X105232335Y-91416206D01*
X105232328Y-91416202D01*
X105100401Y-91366997D01*
X105044467Y-91325126D01*
X105020050Y-91259662D01*
X105034902Y-91191389D01*
X105056053Y-91163133D01*
X105178108Y-91041078D01*
X105313600Y-90847578D01*
X105413429Y-90633492D01*
X105413432Y-90633486D01*
X105470636Y-90420000D01*
X108365001Y-90420000D01*
X108365001Y-90694986D01*
X108375494Y-90797697D01*
X108430641Y-90964119D01*
X108430643Y-90964124D01*
X108522684Y-91113345D01*
X108646654Y-91237315D01*
X108795875Y-91329356D01*
X108795880Y-91329358D01*
X108962302Y-91384505D01*
X108962309Y-91384506D01*
X109065019Y-91394999D01*
X109202499Y-91394999D01*
X109202500Y-91394998D01*
X109202500Y-90420000D01*
X108365001Y-90420000D01*
X105470636Y-90420000D01*
X104573686Y-90420000D01*
X104599493Y-90379844D01*
X104640000Y-90241889D01*
X104640000Y-90098111D01*
X104599493Y-89960156D01*
X104573686Y-89920000D01*
X105470636Y-89920000D01*
X105470635Y-89919999D01*
X105413432Y-89706513D01*
X105413429Y-89706507D01*
X105313600Y-89492422D01*
X105313599Y-89492420D01*
X105178113Y-89298926D01*
X105178108Y-89298920D01*
X105011082Y-89131894D01*
X104817578Y-88996399D01*
X104603492Y-88896570D01*
X104603486Y-88896567D01*
X104390000Y-88839364D01*
X104390000Y-89734498D01*
X104282315Y-89685320D01*
X104175763Y-89670000D01*
X104104237Y-89670000D01*
X103997685Y-89685320D01*
X103890000Y-89734498D01*
X103890000Y-88839364D01*
X103889999Y-88839364D01*
X103676513Y-88896567D01*
X103676507Y-88896570D01*
X103462422Y-88996399D01*
X103462420Y-88996400D01*
X103268926Y-89131886D01*
X103268920Y-89131891D01*
X103101891Y-89298920D01*
X103101886Y-89298926D01*
X102966400Y-89492420D01*
X102966399Y-89492422D01*
X102866570Y-89706507D01*
X102866567Y-89706513D01*
X102809364Y-89919999D01*
X102809364Y-89920000D01*
X103706314Y-89920000D01*
X103680507Y-89960156D01*
X103640000Y-90098111D01*
X103640000Y-90241889D01*
X103680507Y-90379844D01*
X103706314Y-90420000D01*
X102809364Y-90420000D01*
X102866567Y-90633486D01*
X102866570Y-90633492D01*
X102966399Y-90847578D01*
X103101894Y-91041082D01*
X103223946Y-91163134D01*
X103257431Y-91224457D01*
X103252447Y-91294149D01*
X103210575Y-91350082D01*
X103179598Y-91366997D01*
X103047671Y-91416202D01*
X103047664Y-91416206D01*
X102932455Y-91502452D01*
X102932452Y-91502455D01*
X102846206Y-91617664D01*
X102846202Y-91617671D01*
X102795908Y-91752517D01*
X102789501Y-91812116D01*
X102789500Y-91812135D01*
X102789500Y-93607870D01*
X102789501Y-93607876D01*
X102795908Y-93667483D01*
X102846202Y-93802328D01*
X102846206Y-93802335D01*
X102932452Y-93917544D01*
X102932455Y-93917547D01*
X103047664Y-94003793D01*
X103047671Y-94003797D01*
X103182517Y-94054091D01*
X103182516Y-94054091D01*
X103189444Y-94054835D01*
X103242127Y-94060500D01*
X105037872Y-94060499D01*
X105097483Y-94054091D01*
X105232331Y-94003796D01*
X105347546Y-93917546D01*
X105433796Y-93802331D01*
X105434974Y-93799171D01*
X105436996Y-93796470D01*
X105438047Y-93794546D01*
X105438323Y-93794697D01*
X105476843Y-93743236D01*
X105542306Y-93718816D01*
X105551158Y-93718500D01*
X108070770Y-93718500D01*
X108137809Y-93738185D01*
X108158451Y-93754819D01*
X108276344Y-93872712D01*
X108279628Y-93874737D01*
X108279653Y-93874753D01*
X108281445Y-93876746D01*
X108282011Y-93877193D01*
X108281934Y-93877289D01*
X108326379Y-93926699D01*
X108337603Y-93995661D01*
X108309761Y-94059744D01*
X108279665Y-94085826D01*
X108276660Y-94087679D01*
X108276655Y-94087683D01*
X108152684Y-94211654D01*
X108060643Y-94360875D01*
X108060641Y-94360880D01*
X108005494Y-94527302D01*
X108005493Y-94527309D01*
X107995000Y-94630013D01*
X107995000Y-94767500D01*
X109346000Y-94767500D01*
X109413039Y-94787185D01*
X109458794Y-94839989D01*
X109470000Y-94891500D01*
X109470000Y-96104999D01*
X109744972Y-96104999D01*
X109744986Y-96104998D01*
X109847697Y-96094505D01*
X110014119Y-96039358D01*
X110014124Y-96039356D01*
X110163345Y-95947315D01*
X110287315Y-95823345D01*
X110383149Y-95667975D01*
X110385202Y-95669241D01*
X110423784Y-95625418D01*
X110490977Y-95606262D01*
X110557859Y-95626474D01*
X110594875Y-95669193D01*
X110596851Y-95667975D01*
X110692684Y-95823345D01*
X110816654Y-95947315D01*
X110965875Y-96039356D01*
X110965880Y-96039358D01*
X111132302Y-96094505D01*
X111132309Y-96094506D01*
X111235019Y-96104999D01*
X111509998Y-96104999D01*
X111509999Y-96104998D01*
X111510000Y-95267500D01*
X112010000Y-95267500D01*
X112010000Y-96104999D01*
X112284972Y-96104999D01*
X112284986Y-96104998D01*
X112387697Y-96094505D01*
X112554119Y-96039358D01*
X112554124Y-96039356D01*
X112703345Y-95947315D01*
X112827315Y-95823345D01*
X112919356Y-95674124D01*
X112919358Y-95674119D01*
X112974505Y-95507697D01*
X112974506Y-95507690D01*
X112984999Y-95404986D01*
X112985000Y-95404973D01*
X112985000Y-95267500D01*
X112010000Y-95267500D01*
X111510000Y-95267500D01*
X111510000Y-94891500D01*
X111529685Y-94824460D01*
X111582489Y-94778706D01*
X111634000Y-94767500D01*
X112984999Y-94767500D01*
X112984999Y-94630028D01*
X112984998Y-94630013D01*
X112974505Y-94527302D01*
X112919358Y-94360880D01*
X112919356Y-94360875D01*
X112827315Y-94211654D01*
X112703344Y-94087683D01*
X112703341Y-94087681D01*
X112700339Y-94085829D01*
X112698713Y-94084021D01*
X112697677Y-94083202D01*
X112697817Y-94083024D01*
X112653617Y-94033880D01*
X112642397Y-93964917D01*
X112670243Y-93900836D01*
X112700344Y-93874754D01*
X112703656Y-93872712D01*
X112821549Y-93754819D01*
X112882872Y-93721334D01*
X112909230Y-93718500D01*
X113145500Y-93718500D01*
X113212539Y-93738185D01*
X113258294Y-93790989D01*
X113269500Y-93842500D01*
X113269500Y-93875701D01*
X113272401Y-93912567D01*
X113272402Y-93912573D01*
X113316227Y-94063416D01*
X113316028Y-94133285D01*
X113315812Y-94134004D01*
X113306092Y-94166047D01*
X113306091Y-94166049D01*
X113286620Y-94363750D01*
X113306091Y-94561449D01*
X113363760Y-94751558D01*
X113457401Y-94926748D01*
X113457405Y-94926755D01*
X113576352Y-95071692D01*
X113603665Y-95136002D01*
X113604499Y-95150357D01*
X113604500Y-95836403D01*
X113584816Y-95903442D01*
X113568181Y-95924084D01*
X113055766Y-96436498D01*
X112994443Y-96469983D01*
X112924751Y-96464999D01*
X112910886Y-96458219D01*
X112910878Y-96458238D01*
X112904334Y-96455186D01*
X112847937Y-96436498D01*
X112737797Y-96400001D01*
X112737795Y-96400000D01*
X112635010Y-96389500D01*
X109534998Y-96389500D01*
X109534981Y-96389501D01*
X109432203Y-96400000D01*
X109432200Y-96400001D01*
X109265668Y-96455185D01*
X109265663Y-96455187D01*
X109116342Y-96547289D01*
X108992289Y-96671342D01*
X108900187Y-96820663D01*
X108900185Y-96820668D01*
X108900115Y-96820880D01*
X108845001Y-96987203D01*
X108845001Y-96987204D01*
X108845000Y-96987204D01*
X108834500Y-97089983D01*
X108834500Y-98490001D01*
X108834501Y-98490018D01*
X108845000Y-98592796D01*
X108845001Y-98592799D01*
X108900185Y-98759331D01*
X108900187Y-98759336D01*
X108923401Y-98796972D01*
X108992288Y-98908656D01*
X109116344Y-99032712D01*
X109265666Y-99124814D01*
X109432203Y-99179999D01*
X109534991Y-99190500D01*
X112635008Y-99190499D01*
X112737797Y-99179999D01*
X112904334Y-99124814D01*
X113053656Y-99032712D01*
X113177712Y-98908656D01*
X113217777Y-98843697D01*
X113269724Y-98796972D01*
X113311162Y-98785389D01*
X113326201Y-98783909D01*
X113444506Y-98748020D01*
X113514370Y-98747396D01*
X113573483Y-98784644D01*
X113603075Y-98847938D01*
X113604500Y-98866681D01*
X113604501Y-99832500D01*
X113584817Y-99899539D01*
X113532013Y-99945294D01*
X113480501Y-99956500D01*
X113079230Y-99956500D01*
X113012191Y-99936815D01*
X112991549Y-99920181D01*
X112968657Y-99897289D01*
X112968656Y-99897289D01*
X112968656Y-99897288D01*
X112819334Y-99805186D01*
X112652797Y-99750001D01*
X112652795Y-99750000D01*
X112550010Y-99739500D01*
X111774998Y-99739500D01*
X111774980Y-99739501D01*
X111672203Y-99750000D01*
X111672200Y-99750001D01*
X111505668Y-99805185D01*
X111505663Y-99805187D01*
X111356342Y-99897289D01*
X111232288Y-100021343D01*
X111232283Y-100021349D01*
X111230241Y-100024661D01*
X111228247Y-100026453D01*
X111227807Y-100027011D01*
X111227711Y-100026935D01*
X111178291Y-100071383D01*
X111109328Y-100082602D01*
X111045247Y-100054755D01*
X111019168Y-100024656D01*
X111017319Y-100021659D01*
X111017316Y-100021655D01*
X110893345Y-99897684D01*
X110744124Y-99805643D01*
X110744119Y-99805641D01*
X110577697Y-99750494D01*
X110577690Y-99750493D01*
X110474986Y-99740000D01*
X110337500Y-99740000D01*
X110337500Y-102189999D01*
X110474972Y-102189999D01*
X110474986Y-102189998D01*
X110577697Y-102179505D01*
X110744119Y-102124358D01*
X110744124Y-102124356D01*
X110893345Y-102032315D01*
X111017318Y-101908342D01*
X111019165Y-101905348D01*
X111020969Y-101903724D01*
X111021798Y-101902677D01*
X111021976Y-101902818D01*
X111071110Y-101858621D01*
X111140073Y-101847396D01*
X111204156Y-101875236D01*
X111230243Y-101905341D01*
X111232288Y-101908656D01*
X111356344Y-102032712D01*
X111505666Y-102124814D01*
X111672203Y-102179999D01*
X111774991Y-102190500D01*
X112550008Y-102190499D01*
X112550016Y-102190498D01*
X112550019Y-102190498D01*
X112606302Y-102184748D01*
X112652797Y-102179999D01*
X112819334Y-102124814D01*
X112968656Y-102032712D01*
X112991549Y-102009819D01*
X113052872Y-101976334D01*
X113079230Y-101973500D01*
X114269402Y-101973500D01*
X114275482Y-101973799D01*
X114289511Y-101975180D01*
X114322000Y-101978380D01*
X114519701Y-101958909D01*
X114709804Y-101901241D01*
X114709803Y-101901240D01*
X114731650Y-101894614D01*
X114731826Y-101894315D01*
X114758274Y-101875332D01*
X114885004Y-101807595D01*
X115038568Y-101681568D01*
X115068238Y-101645413D01*
X115072288Y-101640944D01*
X116234756Y-100478476D01*
X116296077Y-100444993D01*
X116358430Y-100447498D01*
X116387799Y-100456408D01*
X116585500Y-100475880D01*
X116619422Y-100472538D01*
X116632015Y-100471299D01*
X116638096Y-100471000D01*
X119163552Y-100471000D01*
X119215954Y-100482617D01*
X119220661Y-100484812D01*
X119220664Y-100484813D01*
X119220666Y-100484814D01*
X119387203Y-100539999D01*
X119489991Y-100550500D01*
X119625402Y-100550499D01*
X119692442Y-100570183D01*
X119713083Y-100586817D01*
X120386200Y-101259935D01*
X120390279Y-101264436D01*
X120419932Y-101300568D01*
X120573494Y-101426594D01*
X120573496Y-101426595D01*
X120667142Y-101476650D01*
X120748697Y-101520242D01*
X120938800Y-101577909D01*
X120938799Y-101577909D01*
X120956525Y-101579654D01*
X121136500Y-101597381D01*
X121170452Y-101594036D01*
X121183025Y-101592799D01*
X121189106Y-101592500D01*
X124407402Y-101592500D01*
X124413482Y-101592799D01*
X124427511Y-101594180D01*
X124460000Y-101597380D01*
X124657701Y-101577909D01*
X124847804Y-101520241D01*
X124904366Y-101490008D01*
X125023004Y-101426595D01*
X125176568Y-101300568D01*
X125206238Y-101264413D01*
X125210288Y-101259944D01*
X126787818Y-99682415D01*
X126849141Y-99648930D01*
X126918833Y-99653914D01*
X126974766Y-99695786D01*
X126999183Y-99761250D01*
X126999499Y-99770096D01*
X126999499Y-101997289D01*
X126999263Y-102002698D01*
X126995521Y-102045445D01*
X126983081Y-102171758D01*
X126979453Y-102191698D01*
X126961863Y-102257345D01*
X126961306Y-102259297D01*
X126933318Y-102351562D01*
X126927039Y-102367971D01*
X126895614Y-102435363D01*
X126894102Y-102438388D01*
X126849230Y-102522336D01*
X126845335Y-102528678D01*
X126799022Y-102594819D01*
X126796160Y-102598591D01*
X126736889Y-102670813D01*
X126732801Y-102675324D01*
X126675324Y-102732801D01*
X126670813Y-102736889D01*
X126598591Y-102796160D01*
X126594819Y-102799022D01*
X126528678Y-102845335D01*
X126522336Y-102849230D01*
X126438388Y-102894102D01*
X126435363Y-102895614D01*
X126367971Y-102927039D01*
X126351562Y-102933318D01*
X126259297Y-102961306D01*
X126257345Y-102961863D01*
X126191698Y-102979453D01*
X126171758Y-102983081D01*
X126045445Y-102995521D01*
X126007250Y-102998864D01*
X126002693Y-102999263D01*
X125997290Y-102999499D01*
X103002709Y-102999499D01*
X102997305Y-102999263D01*
X102992337Y-102998828D01*
X102954552Y-102995521D01*
X102828239Y-102983081D01*
X102808299Y-102979453D01*
X102742652Y-102961863D01*
X102740701Y-102961306D01*
X102648438Y-102933319D01*
X102632027Y-102927040D01*
X102564624Y-102895608D01*
X102561600Y-102894096D01*
X102477666Y-102849233D01*
X102471331Y-102845341D01*
X102454215Y-102833357D01*
X102405172Y-102799015D01*
X102401401Y-102796154D01*
X102329190Y-102736894D01*
X102324688Y-102732814D01*
X102267182Y-102675308D01*
X102263103Y-102670807D01*
X102203842Y-102598596D01*
X102200981Y-102594825D01*
X102154656Y-102528666D01*
X102150764Y-102522332D01*
X102105895Y-102438388D01*
X102104412Y-102435422D01*
X102072954Y-102367960D01*
X102066676Y-102351551D01*
X102038695Y-102259305D01*
X102038138Y-102257356D01*
X102038135Y-102257345D01*
X102020542Y-102191688D01*
X102016918Y-102171775D01*
X102004482Y-102045511D01*
X102000733Y-102002658D01*
X102000499Y-101997305D01*
X102000499Y-101215000D01*
X109000001Y-101215000D01*
X109000001Y-101489986D01*
X109010494Y-101592697D01*
X109065641Y-101759119D01*
X109065643Y-101759124D01*
X109157684Y-101908345D01*
X109281654Y-102032315D01*
X109430875Y-102124356D01*
X109430880Y-102124358D01*
X109597302Y-102179505D01*
X109597309Y-102179506D01*
X109700019Y-102189999D01*
X109837499Y-102189999D01*
X109837500Y-102189998D01*
X109837500Y-101215000D01*
X109000001Y-101215000D01*
X102000499Y-101215000D01*
X102000499Y-100715000D01*
X109000000Y-100715000D01*
X109837500Y-100715000D01*
X109837500Y-99740000D01*
X109700027Y-99740000D01*
X109700012Y-99740001D01*
X109597302Y-99750494D01*
X109430880Y-99805641D01*
X109430875Y-99805643D01*
X109281654Y-99897684D01*
X109157684Y-100021654D01*
X109065643Y-100170875D01*
X109065641Y-100170880D01*
X109010494Y-100337302D01*
X109010493Y-100337309D01*
X109000000Y-100440013D01*
X109000000Y-100715000D01*
X102000499Y-100715000D01*
X102000499Y-98040000D01*
X103835001Y-98040000D01*
X103835001Y-98489986D01*
X103845494Y-98592697D01*
X103900641Y-98759119D01*
X103900643Y-98759124D01*
X103992684Y-98908345D01*
X104116654Y-99032315D01*
X104265875Y-99124356D01*
X104265880Y-99124358D01*
X104432302Y-99179505D01*
X104432309Y-99179506D01*
X104535019Y-99189999D01*
X105834999Y-99189999D01*
X105835000Y-99189998D01*
X105835000Y-98040000D01*
X106335000Y-98040000D01*
X106335000Y-99189999D01*
X107634972Y-99189999D01*
X107634986Y-99189998D01*
X107737697Y-99179505D01*
X107904119Y-99124358D01*
X107904124Y-99124356D01*
X108053345Y-99032315D01*
X108177315Y-98908345D01*
X108269356Y-98759124D01*
X108269358Y-98759119D01*
X108324505Y-98592697D01*
X108324506Y-98592690D01*
X108334999Y-98489986D01*
X108335000Y-98489973D01*
X108335000Y-98040000D01*
X106335000Y-98040000D01*
X105835000Y-98040000D01*
X103835001Y-98040000D01*
X102000499Y-98040000D01*
X102000499Y-97540000D01*
X103835000Y-97540000D01*
X105835000Y-97540000D01*
X105835000Y-96390000D01*
X106335000Y-96390000D01*
X106335000Y-97540000D01*
X108334999Y-97540000D01*
X108334999Y-97090028D01*
X108334998Y-97090013D01*
X108324505Y-96987302D01*
X108269358Y-96820880D01*
X108269356Y-96820875D01*
X108177315Y-96671654D01*
X108053345Y-96547684D01*
X107904124Y-96455643D01*
X107904119Y-96455641D01*
X107737697Y-96400494D01*
X107737690Y-96400493D01*
X107634986Y-96390000D01*
X106335000Y-96390000D01*
X105835000Y-96390000D01*
X104535028Y-96390000D01*
X104535012Y-96390001D01*
X104432302Y-96400494D01*
X104265880Y-96455641D01*
X104265875Y-96455643D01*
X104116654Y-96547684D01*
X103992684Y-96671654D01*
X103900643Y-96820875D01*
X103900641Y-96820880D01*
X103845494Y-96987302D01*
X103845493Y-96987309D01*
X103835000Y-97090013D01*
X103835000Y-97540000D01*
X102000499Y-97540000D01*
X102000499Y-95267500D01*
X107995001Y-95267500D01*
X107995001Y-95404986D01*
X108005494Y-95507697D01*
X108060641Y-95674119D01*
X108060643Y-95674124D01*
X108152684Y-95823345D01*
X108276654Y-95947315D01*
X108425875Y-96039356D01*
X108425880Y-96039358D01*
X108592302Y-96094505D01*
X108592309Y-96094506D01*
X108695019Y-96104999D01*
X108969999Y-96104999D01*
X108970000Y-96104998D01*
X108970000Y-95267500D01*
X107995001Y-95267500D01*
X102000499Y-95267500D01*
X102000499Y-86002703D01*
X102000735Y-85997299D01*
X102004476Y-85954540D01*
X102016917Y-85828221D01*
X102020540Y-85808314D01*
X102038164Y-85742540D01*
X102038654Y-85740822D01*
X102066684Y-85648419D01*
X102072947Y-85632049D01*
X102104405Y-85564588D01*
X102105879Y-85561638D01*
X102150772Y-85477650D01*
X102154638Y-85471355D01*
X102200990Y-85405158D01*
X102203846Y-85401396D01*
X102263126Y-85329163D01*
X102267166Y-85324704D01*
X102324703Y-85267167D01*
X102329162Y-85263127D01*
X102401438Y-85203810D01*
X102405129Y-85201010D01*
X102471330Y-85154656D01*
X102477657Y-85150769D01*
X102561652Y-85105872D01*
X102564575Y-85104411D01*
X102632042Y-85072951D01*
X102648431Y-85066681D01*
X102740798Y-85038662D01*
X102742592Y-85038150D01*
X102808304Y-85020542D01*
X102828221Y-85016918D01*
X102954555Y-85004474D01*
X102997292Y-85000735D01*
X103002694Y-85000500D01*
X125997292Y-85000500D01*
X126002697Y-85000736D01*
G37*
%TD.AperFunction*%
%TA.AperFunction,Conductor*%
G36*
X124710000Y-97850633D02*
G01*
X124923483Y-97793433D01*
X124923492Y-97793429D01*
X125053094Y-97732996D01*
X125122172Y-97722504D01*
X125185956Y-97751024D01*
X125224195Y-97809500D01*
X125229499Y-97845378D01*
X125229499Y-98336904D01*
X125209814Y-98403943D01*
X125193180Y-98424585D01*
X124078585Y-99539181D01*
X124017262Y-99572666D01*
X123990904Y-99575500D01*
X123806437Y-99575500D01*
X123739398Y-99555815D01*
X123693643Y-99503011D01*
X123683034Y-99439345D01*
X123689963Y-99369004D01*
X123690500Y-99363547D01*
X123695380Y-99314000D01*
X123690799Y-99267483D01*
X123690500Y-99261403D01*
X123690500Y-97845377D01*
X123710185Y-97778338D01*
X123762989Y-97732583D01*
X123832147Y-97722639D01*
X123866905Y-97732995D01*
X123996507Y-97793430D01*
X123996516Y-97793433D01*
X124210000Y-97850634D01*
X124210000Y-96955501D01*
X124317685Y-97004680D01*
X124424237Y-97020000D01*
X124495763Y-97020000D01*
X124602315Y-97004680D01*
X124710000Y-96955501D01*
X124710000Y-97850633D01*
G37*
%TD.AperFunction*%
%TA.AperFunction,Conductor*%
G36*
X120705355Y-90174627D02*
G01*
X120756556Y-90222169D01*
X120767704Y-90246580D01*
X120785182Y-90299325D01*
X120785185Y-90299333D01*
X120785186Y-90299334D01*
X120877288Y-90448656D01*
X121001344Y-90572712D01*
X121150666Y-90664814D01*
X121317203Y-90719999D01*
X121419991Y-90730500D01*
X122420008Y-90730499D01*
X122420016Y-90730498D01*
X122420019Y-90730498D01*
X122476302Y-90724748D01*
X122522797Y-90719999D01*
X122689334Y-90664814D01*
X122702066Y-90656960D01*
X122767162Y-90638500D01*
X123196904Y-90638500D01*
X123263943Y-90658185D01*
X123284585Y-90674819D01*
X125027585Y-92417819D01*
X125061070Y-92479142D01*
X125056086Y-92548834D01*
X125014214Y-92604767D01*
X124948750Y-92629184D01*
X124939904Y-92629500D01*
X123562129Y-92629500D01*
X123562123Y-92629501D01*
X123502516Y-92635908D01*
X123367671Y-92686202D01*
X123367664Y-92686206D01*
X123252455Y-92772452D01*
X123252452Y-92772455D01*
X123166206Y-92887664D01*
X123166202Y-92887671D01*
X123115908Y-93022517D01*
X123109501Y-93082116D01*
X123109500Y-93082135D01*
X123109500Y-93852902D01*
X123089815Y-93919941D01*
X123073181Y-93940583D01*
X122006077Y-95007687D01*
X122001567Y-95011775D01*
X121965432Y-95041431D01*
X121839405Y-95194994D01*
X121839403Y-95194997D01*
X121801988Y-95264998D01*
X121766977Y-95330500D01*
X121755635Y-95351719D01*
X121745758Y-95370197D01*
X121688091Y-95560296D01*
X121668620Y-95758000D01*
X121673201Y-95804517D01*
X121673500Y-95810597D01*
X121673500Y-98181500D01*
X121653815Y-98248539D01*
X121601011Y-98294294D01*
X121549500Y-98305500D01*
X121235313Y-98305500D01*
X121168274Y-98285815D01*
X121122519Y-98233011D01*
X121112575Y-98163853D01*
X121129774Y-98116403D01*
X121174356Y-98044124D01*
X121174358Y-98044119D01*
X121229505Y-97877697D01*
X121229506Y-97877690D01*
X121239999Y-97774986D01*
X121240000Y-97774973D01*
X121240000Y-97637500D01*
X118790001Y-97637500D01*
X118790001Y-97774989D01*
X118793877Y-97812925D01*
X118781107Y-97881618D01*
X118733226Y-97932502D01*
X118665436Y-97949422D01*
X118599260Y-97927006D01*
X118596208Y-97924793D01*
X118547331Y-97888204D01*
X118547328Y-97888202D01*
X118412482Y-97837908D01*
X118412483Y-97837908D01*
X118352883Y-97831501D01*
X118352881Y-97831500D01*
X118352873Y-97831500D01*
X118352865Y-97831500D01*
X114812595Y-97831500D01*
X114745556Y-97811815D01*
X114699801Y-97759011D01*
X114689857Y-97689853D01*
X114718882Y-97626297D01*
X114724914Y-97619819D01*
X115575915Y-96768818D01*
X115637238Y-96735333D01*
X115663596Y-96732499D01*
X118352871Y-96732499D01*
X118352872Y-96732499D01*
X118412483Y-96726091D01*
X118547331Y-96675796D01*
X118662546Y-96589546D01*
X118662548Y-96589542D01*
X118665329Y-96587461D01*
X118730793Y-96563043D01*
X118799066Y-96577894D01*
X118848472Y-96627298D01*
X118863325Y-96695571D01*
X118857347Y-96725730D01*
X118800495Y-96897299D01*
X118800493Y-96897309D01*
X118790000Y-97000013D01*
X118790000Y-97137500D01*
X121239999Y-97137500D01*
X121239999Y-97000028D01*
X121239998Y-97000013D01*
X121229505Y-96897302D01*
X121174358Y-96730880D01*
X121174353Y-96730869D01*
X121084733Y-96585573D01*
X121066292Y-96518181D01*
X121084730Y-96455382D01*
X121174814Y-96309334D01*
X121229999Y-96142797D01*
X121240500Y-96040009D01*
X121240499Y-95264992D01*
X121229999Y-95162203D01*
X121174814Y-94995666D01*
X121082712Y-94846344D01*
X120958656Y-94722288D01*
X120955819Y-94720538D01*
X120954283Y-94718830D01*
X120952989Y-94717807D01*
X120953163Y-94717585D01*
X120909096Y-94668594D01*
X120897872Y-94599632D01*
X120925713Y-94535549D01*
X120955817Y-94509462D01*
X120958656Y-94507712D01*
X121082712Y-94383656D01*
X121174814Y-94234334D01*
X121229999Y-94067797D01*
X121240500Y-93965009D01*
X121240499Y-93189992D01*
X121229999Y-93087203D01*
X121174814Y-92920666D01*
X121082712Y-92771344D01*
X120958656Y-92647288D01*
X120865888Y-92590069D01*
X120809336Y-92555187D01*
X120809331Y-92555185D01*
X120790165Y-92548834D01*
X120642797Y-92500001D01*
X120642795Y-92500000D01*
X120540010Y-92489500D01*
X119489998Y-92489500D01*
X119489980Y-92489501D01*
X119387203Y-92500000D01*
X119387200Y-92500001D01*
X119220668Y-92555185D01*
X119220663Y-92555187D01*
X119071342Y-92647289D01*
X118947289Y-92771342D01*
X118900872Y-92846597D01*
X118848924Y-92893321D01*
X118795333Y-92905500D01*
X117488559Y-92905500D01*
X117453964Y-92900576D01*
X117322573Y-92862402D01*
X117322567Y-92862401D01*
X117285701Y-92859500D01*
X117285694Y-92859500D01*
X116581500Y-92859500D01*
X116514461Y-92839815D01*
X116468706Y-92787011D01*
X116457500Y-92735500D01*
X116457500Y-92684500D01*
X116477185Y-92617461D01*
X116529989Y-92571706D01*
X116581500Y-92560500D01*
X117285686Y-92560500D01*
X117285694Y-92560500D01*
X117322569Y-92557598D01*
X117322571Y-92557597D01*
X117322573Y-92557597D01*
X117364191Y-92545505D01*
X117480398Y-92511744D01*
X117538693Y-92477268D01*
X117601815Y-92460000D01*
X117867295Y-92460000D01*
X117867295Y-92459998D01*
X117867100Y-92457511D01*
X117867099Y-92457505D01*
X117821283Y-92299806D01*
X117821281Y-92299801D01*
X117820578Y-92298612D01*
X117820310Y-92297558D01*
X117818184Y-92292644D01*
X117818976Y-92292300D01*
X117803395Y-92230888D01*
X117819009Y-92177714D01*
X117818646Y-92177557D01*
X117819920Y-92174612D01*
X117820579Y-92172369D01*
X117821742Y-92170401D01*
X117821744Y-92170398D01*
X117867598Y-92012569D01*
X117870500Y-91975694D01*
X117870500Y-91544306D01*
X117867598Y-91507431D01*
X117866152Y-91502455D01*
X117821745Y-91349606D01*
X117821744Y-91349603D01*
X117821744Y-91349602D01*
X117738081Y-91208135D01*
X117738078Y-91208132D01*
X117738076Y-91208129D01*
X117621870Y-91091923D01*
X117621867Y-91091921D01*
X117621865Y-91091919D01*
X117555035Y-91052396D01*
X117522878Y-91033378D01*
X117475195Y-90982308D01*
X117462000Y-90926646D01*
X117462000Y-90803176D01*
X117481685Y-90736137D01*
X117534489Y-90690382D01*
X117546997Y-90685470D01*
X117609334Y-90664814D01*
X117758656Y-90572712D01*
X117882712Y-90448656D01*
X117885953Y-90443400D01*
X117937903Y-90396677D01*
X117991491Y-90384500D01*
X118228509Y-90384500D01*
X118295548Y-90404185D01*
X118334046Y-90443400D01*
X118337288Y-90448656D01*
X118461344Y-90572712D01*
X118610666Y-90664814D01*
X118777203Y-90719999D01*
X118879991Y-90730500D01*
X119880008Y-90730499D01*
X119880016Y-90730498D01*
X119880019Y-90730498D01*
X119936302Y-90724748D01*
X119982797Y-90719999D01*
X120149334Y-90664814D01*
X120298656Y-90572712D01*
X120422712Y-90448656D01*
X120514814Y-90299334D01*
X120532295Y-90246577D01*
X120572064Y-90189138D01*
X120636579Y-90162313D01*
X120705355Y-90174627D01*
G37*
%TD.AperFunction*%
%TA.AperFunction,Conductor*%
G36*
X115625093Y-90173833D02*
G01*
X115676293Y-90221375D01*
X115687441Y-90245785D01*
X115705186Y-90299334D01*
X115797096Y-90448345D01*
X115797289Y-90448657D01*
X115916681Y-90568049D01*
X115950166Y-90629372D01*
X115953000Y-90655730D01*
X115953000Y-90926646D01*
X115933315Y-90993685D01*
X115892122Y-91033378D01*
X115793135Y-91091919D01*
X115793129Y-91091923D01*
X115676923Y-91208129D01*
X115676911Y-91208145D01*
X115676721Y-91208467D01*
X115676506Y-91208667D01*
X115672139Y-91214298D01*
X115671229Y-91213592D01*
X115625645Y-91256142D01*
X115556901Y-91268635D01*
X115492316Y-91241980D01*
X115468144Y-91214078D01*
X115467861Y-91214298D01*
X115463810Y-91209076D01*
X115463265Y-91208446D01*
X115463081Y-91208135D01*
X115463080Y-91208134D01*
X115463079Y-91208132D01*
X115346870Y-91091923D01*
X115346862Y-91091917D01*
X115205396Y-91008255D01*
X115205393Y-91008254D01*
X115047573Y-90962402D01*
X115047567Y-90962401D01*
X115010701Y-90959500D01*
X115010694Y-90959500D01*
X114946867Y-90959500D01*
X114879828Y-90939815D01*
X114834073Y-90887011D01*
X114824129Y-90817853D01*
X114853154Y-90754297D01*
X114907863Y-90717794D01*
X115069119Y-90664358D01*
X115069124Y-90664356D01*
X115218345Y-90572315D01*
X115342315Y-90448345D01*
X115434356Y-90299124D01*
X115434356Y-90299122D01*
X115452029Y-90245789D01*
X115491801Y-90188343D01*
X115556317Y-90161519D01*
X115625093Y-90173833D01*
G37*
%TD.AperFunction*%
%TD*%
M02*
